<?xml version="1.0" encoding="UTF-8"?>
<svg id="Capa_2" data-name="Capa 2" xmlns="http://www.w3.org/2000/svg" xmlns:xlink="http://www.w3.org/1999/xlink" viewBox="0 0 141.88 41.9">
  <defs>
    <style>
      .cls-1 {
        clip-path: url(#clippath);
      }

      .cls-2 {
        fill: none;
      }

      .cls-2, .cls-3 {
        stroke-width: 0px;
      }

      .cls-4 {
        clip-path: url(#clippath-1);
      }

      .cls-5 {
        clip-path: url(#clippath-4);
      }

      .cls-6 {
        clip-path: url(#clippath-3);
      }

      .cls-7 {
        clip-path: url(#clippath-2);
      }

      .cls-8 {
        clip-path: url(#clippath-7);
      }

      .cls-9 {
        clip-path: url(#clippath-8);
      }

      .cls-10 {
        clip-path: url(#clippath-6);
      }

      .cls-11 {
        clip-path: url(#clippath-5);
      }

      .cls-3 {
        fill: #000;
      }

      .cls-12 {
        opacity: .85;
      }
    </style>
    <clipPath id="clippath">
      <rect class="cls-2" width="99.45" height="41.9"/>
    </clipPath>
    <clipPath id="clippath-1">
      <rect class="cls-2" x="0" width="99.44" height="41.9"/>
    </clipPath>
    <clipPath id="clippath-2">
      <rect class="cls-2" x="55.63" y="34.02" width="11.82" height="7.88"/>
    </clipPath>
    <clipPath id="clippath-3">
      <rect class="cls-2" x="14.88" y="34.03" width="25.87" height="7.87"/>
    </clipPath>
    <clipPath id="clippath-4">
      <rect class="cls-2" x="14.88" y="34.03" width="25.87" height="7.87"/>
    </clipPath>
    <clipPath id="clippath-5">
      <rect class="cls-2" x="110.45" y="24.37" width="24.35" height="2.87"/>
    </clipPath>
    <clipPath id="clippath-6">
      <rect class="cls-2" x="110.45" y="24.37" width="24.35" height="2.87"/>
    </clipPath>
    <clipPath id="clippath-7">
      <rect class="cls-2" x="103.3" y="5.47" width="38.58" height="17.54"/>
    </clipPath>
    <clipPath id="clippath-8">
      <rect class="cls-2" x="103.3" y="5.47" width="38.58" height="17.54"/>
    </clipPath>
  </defs>
  <g id="Capa_1-2" data-name="Capa 1">
    <g class="cls-12">
      <g class="cls-1">
        <g class="cls-4">
          <path class="cls-3" d="M15.27,14.27s-.83-.03-3.46-.03h0c-2.63,0-3.46.03-3.46.03-2.46,0-4.46,2-4.46,4.46s2,4.46,4.46,4.46c0,0,.83.03,3.46.03h0c2.63,0,3.46-.03,3.46-.03,2.46,0,4.46-2,4.46-4.46s-2-4.46-4.46-4.46M91.15,14.27s-.83-.03-3.46-.03h0c-2.63,0-3.46.03-3.46.03-1.8,0-3.35,1.08-4.06,2.62h15.04c-.7-1.54-2.25-2.62-4.06-2.62M40.03,14.27s-.83-.03-3.46-.03h0c-2.63,0-3.47.03-3.47.03-2.46,0-4.46,2-4.46,4.46s2,4.46,4.46,4.46c0,0,.83.03,3.47.03h0c2.63,0,3.46-.03,3.46-.03,2.46,0,4.46-2,4.46-4.46s-2-4.46-4.46-4.46M90.68,4.49l5.92-1.91.94,2.93-8.84,2.85c-.52-1.62.37-3.35,1.98-3.87M15.27,27.04h-6.94C3.76,27.04.04,23.31.04,18.73V3.85C.04,1.72,1.76,0,3.88,0v11.73c1.29-.82,2.82-1.31,4.46-1.31h6.94c4.58,0,8.3,3.73,8.3,8.31s-3.72,8.31-8.3,8.31M40.03,27.04h-6.94c-4.58,0-8.29-3.73-8.29-8.31s3.72-8.31,8.29-8.31h6.94c4.58,0,8.3,3.73,8.3,8.31s-3.72,8.31-8.3,8.31M62.58,27.04h-4.58c-4.57,0-8.3-3.73-8.3-8.31V3.85C49.71,1.72,51.43,0,53.55,0v18.54c0,2.67,2.01,4.65,4.54,4.65,0,0,.76.01,3.39.03h1.11v3.82ZM75.73,27.04h-4.57c-4.58,0-8.3-3.73-8.3-8.31V3.85C62.87,1.72,64.59,0,66.71,0v18.54c0,2.67,2.01,4.65,4.54,4.65,0,0,.75.01,3.38.03h1.11v3.82ZM98.11,27.04h-13.89c-4.58,0-8.3-3.73-8.3-8.31s3.72-8.31,8.3-8.31h6.94c4.56,0,8.27,3.71,8.3,8.26v1.94h-19.26c.72,1.51,2.25,2.56,4.03,2.56,0,0,.83.03,3.46.03h10.43v3.82Z"/>
          <path class="cls-3" d="M45.94,34.57h8.21v-.59h-8.4c-2.07,0-3.75,1.78-3.75,3.96s1.68,3.95,3.77,3.95h8.35s0-.56,0-.56c0,0-7.51,0-8.15-.02-1.78,0-3.19-1.35-3.34-3.06h11.52v-.64h-11.52c.16-1.7,1.53-3.05,3.31-3.05"/>
          <path class="cls-3" d="M80.59,34.01v3.71h-9.18s-.71.02-1.21-.47c-.36-.35-.54-.89-.54-1.59v-1.65h-.64v1.65c0,.89.25,1.58.75,2.05.69.66,1.59.65,1.67.65h9.16v.83c0,.7-.18,1.24-.55,1.59-.5.49-1.21.47-1.21.47h-7.98v.64h7.96c.08,0,.98.01,1.67-.65.49-.48.75-1.17.75-2.05v-5.18h-.64Z"/>
          <path class="cls-3" d="M11.09,37.59l-8.52.02c-1.32,0-1.96-.51-1.96-1.51s.64-1.53,1.96-1.53c.64-.02,10.52,0,10.52,0v-.58s-10.72,0-10.72,0c-1.48,0-2.37.93-2.37,2.11s.89,2.1,2.38,2.1l8.52-.02c1.32,0,1.96.6,1.96,1.6s-.64,1.53-1.96,1.53c-.64.02-10.52,0-10.52,0v.58s10.72,0,10.72,0c1.48,0,2.37-.93,2.37-2.11s-.9-2.19-2.38-2.19"/>
        </g>
      </g>
    </g>
    <g class="cls-12">
      <g class="cls-7">
        <polygon class="cls-3" points="55.63 34.02 55.63 34.59 61.21 34.59 61.21 41.9 61.78 41.9 61.78 34.59 67.45 34.59 67.45 34.02 55.63 34.02"/>
      </g>
    </g>
    <g class="cls-12">
      <g class="cls-6">
        <g class="cls-5">
          <path class="cls-3" d="M26.97,36.39c0-.13-.15-2.36-3.32-2.36h-5.41c-3.25,0-3.36,2.23-3.36,2.37v5.5h.63v-3.63h10.83v3.63h.63v-5.5ZM15.51,37.63v-1.1c0-.13.11-1.86,2.73-1.86h5.41c2.52,0,2.69,1.7,2.69,1.87v1.09h-10.83Z"/>
          <path class="cls-3" d="M29.66,35.15c.51-.49,1.21-.48,1.22-.48h9.87s0-.64,0-.64h-9.86c-.09,0-.99-.01-1.68.65-.5.48-.75,1.39-.75,2.28v4.93h.64v-3.74h11.63v-.61h-11.63v-.58c0-.71.18-1.46.55-1.81"/>
        </g>
      </g>
    </g>
    <g class="cls-12">
      <g class="cls-11">
        <g class="cls-10">
          <path class="cls-3" d="M122.63,24.37h0s-12.18,0-12.18,0v2.16c0,.39.31.7.7.7h11.48s11.46,0,11.46,0c.39,0,.7-.32.7-.71v-2.16s-12.16,0-12.16,0Z"/>
        </g>
      </g>
    </g>
    <g class="cls-12">
      <g class="cls-8">
        <g class="cls-9">
          <path class="cls-3" d="M141.43,8.97c-4.59,1.36-14.66,3.38-18.81-3.44h0s0,0,0,0c-.01-.02-.03-.04-.04-.06-4.12,6.9-14.24,4.86-18.85,3.5-.29-.09-.54.21-.4.49,1.5,2.96,5.5,10.89,6.84,13.55h12.45s12.37,0,12.37,0c1.34-2.66,5.35-10.58,6.84-13.55.14-.27-.11-.58-.4-.49"/>
        </g>
      </g>
    </g>
    <path class="cls-3" d="M134.79,24.37h-12.16s0,2.86,0,2.86h11.46c.39,0,.7-.31.7-.7v-2.16Z"/>
    <path class="cls-3" d="M141.43,8.97c-4.59,1.36-14.66,3.38-18.81-3.44v17.48h12.37c1.34-2.66,5.35-10.58,6.84-13.54.14-.27-.11-.58-.4-.49"/>
  </g>
</svg>