<?xml version="1.0" encoding="UTF-8"?>
<svg id="Capa_2" data-name="Capa 2" xmlns="http://www.w3.org/2000/svg" viewBox="0 0 154.27 36.88">
  <defs>
    <style>
      .cls-1 {
        fill: #1d1d1b;
      }

      .cls-1, .cls-2 {
        stroke-width: 0px;
      }

      .cls-2 {
        fill: #ffed00;
      }
    </style>
  </defs>
  <g id="Capa_1-2" data-name="Capa 1">
    <polygon class="cls-2" points="146.58 2.06 138.56 11.88 143.15 22.24 135.52 22.26 133.69 17.92 123.11 35.44 123.12 35.53 123.04 35.54 122.24 36.88 107.16 36.88 130.79 10.99 127.02 2.06 134.2 2.06 135.61 5.23 137.66 2.06 138.93 2.06 143.27 2.06 146.58 2.06"/>
    <path class="cls-1" d="M117.25,8.48c.17-.57-.34-1.04-1.14-1.04h-6.17c-.77,0-1.51.45-1.68,1.01l-.4,1.16h9.01l.39-1.13ZM120.14,2.43c2.72,0,4.46,1.6,3.9,3.57l-2.98,8.6h-14.94l-.55,1.61c-.17.57.35,1.04,1.14,1.04h13.4l-1.74,5h-15.7c-2.72,0-4.46-1.61-3.9-3.57l4.39-12.68c.56-1.98,2.01-3.57,4.72-3.57h12.26Z"/>
    <polygon class="cls-1" points="103.8 2.43 87.8 22.26 83.84 22.26 80.84 22.26 77.9 22.26 84.78 2.43 90.71 2.43 86.25 15.3 96.26 2.43 103.8 2.43"/>
    <polygon class="cls-1" points="83.16 2.43 76.28 22.26 70.35 22.26 77.22 2.43 83.16 2.43"/>
    <polygon class="cls-1" points="75.53 2.43 73.8 7.44 66.14 7.44 61 22.26 55.06 22.26 60.2 7.44 52.28 7.44 54.01 2.43 61.94 2.43 67.87 2.43 75.53 2.43"/>
    <path class="cls-1" d="M52.32,2.43l-1.73,5h-11.62c-.77,0-1.52.45-1.68,1.01l-2.68,7.76c-.17.57.35,1.04,1.14,1.04h11.42l-1.74,5h-13.72c-2.72,0-4.46-1.61-3.9-3.57l4.39-12.68c.57-1.98,2.01-3.57,4.72-3.57h15.4Z"/>
    <path class="cls-1" d="M20.53,15.04l-.41-8.17-6.69,8.17h7.09ZM25.48,1.85l1.02,20.41h-5.62l-.18-3.66h-10.18l-2.99,3.66H.05l-.05-.05L18.8,1.56c.82-.92,2.3-1.56,3.77-1.56,1.62,0,2.76.77,2.9,1.85"/>
    <path class="cls-1" d="M153.26,17.05c0-2.49-1.86-4.35-4.25-4.35s-4.27,1.86-4.27,4.35,1.86,4.38,4.27,4.38,4.25-1.84,4.25-4.38M149,11.86c2.83,0,5.27,2.21,5.27,5.19s-2.43,5.21-5.27,5.21-5.29-2.2-5.29-5.21,2.42-5.19,5.29-5.19"/>
    <path class="cls-1" d="M150.48,15.71c0-.57-.28-.9-1.33-.9h-1.25v1.88h1.1c1.12,0,1.48-.32,1.48-.98M149.84,17.43l1.7,2.63h-1l-1.6-2.6h-1.05v2.6h-.92v-6h2.3c1.43,0,2.13.53,2.13,1.71,0,1.08-.68,1.54-1.57,1.65"/>
  </g>
</svg>