<?xml version="1.0" encoding="UTF-8"?>
<svg id="Capa_2" data-name="Capa 2" xmlns="http://www.w3.org/2000/svg" viewBox="0 0 133.18 39.33">
  <defs>
    <style>
      .cls-1 {
        fill: #ccc;
      }

      .cls-1, .cls-2 {
        stroke-width: 0px;
      }

      .cls-2 {
        fill: #fff;
      }
    </style>
  </defs>
  <g id="Capa_2-2" data-name="Capa 2">
    <g id="Capa_1-2" data-name="Capa 1-2">
      <path class="cls-2" d="M62.61,0c-1.99,0-3.6,1.62-3.6,3.61v13.97c0,4.3,3.49,7.8,7.79,7.8h4.29v-3.59h-1.04c-2.47-.01-3.18-.03-3.18-.03-2.37,0-4.26-1.86-4.26-4.36V0ZM50.26,0c-1.99,0-3.6,1.62-3.6,3.61v13.97c0,4.3,3.49,7.8,7.79,7.8h4.29v-3.59h-1.04c-2.47-.01-3.18-.03-3.18-.03-2.37,0-4.26-1.86-4.26-4.36,0,0,0-17.4,0-17.4ZM3.64,0C1.65,0,.04,1.62.04,3.61v13.97c0,4.3,3.49,7.8,7.79,7.8h6.51c4.3,0,7.79-3.5,7.79-7.8s-3.49-7.8-7.79-7.8h-6.51c-1.54,0-2.98.45-4.19,1.23,0,0,0-11.01,0-11.01ZM11.08,21.79c-2.47,0-3.25-.03-3.25-.03-2.31,0-4.19-1.88-4.19-4.19s1.88-4.19,4.19-4.19c0,0,.78-.03,3.25-.03h0c2.47,0,3.25.03,3.25.03,2.31,0,4.19,1.88,4.19,4.19s-1.88,4.19-4.19,4.19c0,0-.78.03-3.25.03h0ZM90.67,2.42l-5.56,1.79c-1.51.49-2.35,2.11-1.86,3.63l8.3-2.68-.88-2.75h0ZM85.55,9.79h-6.51c-4.29,0-7.79,3.5-7.79,7.8s3.49,7.8,7.79,7.8h13.04v-3.59h-9.79c-2.47,0-3.25-.03-3.25-.03-1.67,0-3.11-.99-3.78-2.41h18.08v-1.82c-.02-4.28-3.51-7.76-7.79-7.76M75.24,15.85c.66-1.44,2.12-2.46,3.81-2.46,0,0,.78-.03,3.25-.03h0c2.47,0,3.25.03,3.25.03,1.69,0,3.15,1.01,3.81,2.46,0,0-14.12,0-14.12,0ZM37.57,9.79h-6.51c-4.29,0-7.79,3.5-7.79,7.8s3.49,7.8,7.79,7.8h6.51c4.29,0,7.79-3.5,7.79-7.8s-3.49-7.8-7.79-7.8M34.31,21.79c-2.47,0-3.25-.03-3.25-.03-2.31,0-4.18-1.88-4.18-4.19s1.88-4.19,4.18-4.19c0,0,.78-.03,3.25-.03h0c2.47,0,3.25.03,3.25.03,2.31,0,4.18,1.88,4.18,4.19s-1.88,4.19-4.18,4.19c0,0-.78.03-3.25.03h0Z"/>
      <path class="cls-2" d="M50.83,31.9h-7.89c-1.94,0-3.52,1.67-3.52,3.72s1.57,3.7,3.53,3.7h7.85v-.52h-1.23c-2.05,0-5.99,0-6.43-.02-1.67,0-3-1.27-3.14-2.87h10.81v-.6h-10.81c.15-1.6,1.44-2.86,3.11-2.86h7.71v-.55h.01Z"/>
      <path class="cls-2" d="M76.24,31.92h-.6v3.49h-8.63c-.09,0-.69-.02-1.13-.44-.34-.33-.51-.83-.51-1.49v-1.55h-.6v1.55c0,.83.24,1.48.7,1.93.6.57,1.37.61,1.54.61h8.63v.78c0,.66-.17,1.16-.51,1.49-.44.43-1.06.44-1.13.44h-7.5v.6h7.5c.17,0,.94-.03,1.54-.61.46-.45.7-1.09.7-1.93,0,0,0-4.87,0-4.87Z"/>
      <path class="cls-2" d="M12.29,31.91H2.23c-1.39,0-2.23.88-2.23,1.98s.84,1.97,2.24,1.97l7.99-.02c1.24,0,1.84.56,1.84,1.5s-.6,1.44-1.84,1.44c-.24,0-1.82,0-3.65,0H.36v.54h10.06c1.38,0,2.22-.87,2.22-1.98s-.84-2.05-2.24-2.05l-7.99.02c-1.24,0-1.84-.48-1.84-1.42s.6-1.44,1.84-1.44c.24,0,1.81,0,3.64,0h6.24s0-.54,0-.54Z"/>
      <polygon class="cls-2" points="63.31 31.93 52.21 31.93 52.21 32.47 57.45 32.47 57.45 39.32 57.99 39.32 57.99 32.47 63.31 32.47 63.31 31.93"/>
      <path class="cls-2" d="M22.2,31.94h-5.08c-3.05,0-3.16,2.09-3.16,2.22v5.16h.59v-3.41h10.17v3.41h.59v-5.17c0-.12-.15-2.22-3.12-2.22M14.56,35.32v-1.03c0-.12.1-1.75,2.56-1.75h5.08c2.37,0,2.52,1.6,2.52,1.76v1.02h-10.17,0Z"/>
      <path class="cls-2" d="M28.97,31.94c-.17,0-.95.03-1.55.61-.47.45-.7,1.31-.7,2.14v4.63h.6v-3.51h10.92v-.58h-10.92v-.55c0-.66.17-1.37.51-1.7.45-.44,1.06-.45,1.14-.45h9.27v-.6h-9.28"/>
      <path class="cls-2" d="M103.67,22.87v2.02c0,.37.29.66.66.66h21.52c.37,0,.66-.3.66-.66v-2.02h-22.85,0Z"/>
      <path class="cls-2" d="M115.07,5.14c-2.12,3.54-5.92,4.57-9.63,4.57-3.08,0-6.1-.71-8.06-1.29-.03-.01-.07-.01-.1-.01-.23,0-.4.25-.28.47,1.4,2.78,5.16,10.22,6.42,12.72h23.3c1.26-2.5,5.02-9.94,6.42-12.72.11-.23-.05-.47-.28-.47-.03,0-.06,0-.1.01-1.96.58-4.97,1.29-8.05,1.29-3.7,0-7.48-1.02-9.6-4.52h0l-.04-.06h0Z"/>
      <path class="cls-1" d="M126.52,22.88h-11.42v2.68h10.75c.37,0,.66-.29.66-.66v-2.02h0Z"/>
      <path class="cls-1" d="M132.75,8.42c-4.31,1.28-13.76,3.17-17.65-3.23v16.4h11.61c1.26-2.5,5.02-9.93,6.42-12.71.13-.26-.1-.54-.38-.46"/>
    </g>
  </g>
</svg>