<?xml version="1.0" encoding="UTF-8"?>
<svg id="Capa_2" xmlns="http://www.w3.org/2000/svg" version="1.1" viewBox="0 0 143.2 113.1">
  <!-- Generator: Adobe Illustrator 29.7.1, SVG Export Plug-In . SVG Version: 2.1.1 Build 8)  -->
  <defs>
    <style>
      .st0 {
        fill: #fff;
      }
    </style>
  </defs>
  <g id="_íconos">
    <path class="st0" d="M121.5,0H21.7C9.7,0,0,9.7,0,21.7v69.7c0,12,9.7,21.7,21.7,21.7h99.8c12,0,21.7-9.7,21.7-21.7V21.7c0-12-9.7-21.7-21.7-21.7ZM12.6,21.7c0-.3,0-.6,0-1l40.4,45.8c4.7,5.3,11.5,8.4,18.6,8.4s13.8-3.1,18.6-8.4l40.4-45.8c0,.3,0,.6,0,1v69.7c0,5-4.1,9.1-9.1,9.1H21.7c-5,0-9.1-4.1-9.1-9.1V21.7h0ZM80.7,58.2c-2.3,2.6-5.6,4.1-9.1,4.1s-6.8-1.5-9.1-4.1L22.3,12.6h98.6l-40.2,45.6Z"/>
  </g>
</svg>