<?xml version="1.0" encoding="UTF-8"?>
<svg id="Capa_2" xmlns="http://www.w3.org/2000/svg" version="1.1" viewBox="0 0 146.8 147.2">
  <!-- Generator: Adobe Illustrator 29.7.1, SVG Export Plug-In . SVG Version: 2.1.1 Build 8)  -->
  <defs>
    <style>
      .st0 {
        fill-rule: evenodd;
      }

      .st0, .st1 {
        fill: #fff;
      }
    </style>
  </defs>
  <g id="_íconos">
    <g>
      <path class="st1" d="M0,147.2l10.6-39.4c-6-10.8-9.1-22.9-9.1-35.1,0-40.1,32.6-72.7,72.7-72.7s72.7,32.6,72.7,72.7-32.6,72.7-72.7,72.7-23.9-3-34.5-8.8L0,147.2ZM41.5,121.8l2.5,1.5c9.1,5.4,19.6,8.3,30.1,8.3,32.5,0,59-26.4,59-58.9S106.6,13.7,74.1,13.7,15.2,40.2,15.2,72.7s3,21.3,8.6,30.6l1.5,2.5-5.9,22,22.1-5.9h0Z"/>
      <path class="st0" d="M101.2,82.8c-3-1.8-6.9-3.8-10.4-2.3-2.7,1.1-4.4,5.3-6.2,7.5-.9,1.1-2,1.3-3.3.7-10.2-4-17.9-10.8-23.5-20.2-1-1.4-.8-2.6.4-3.9,1.7-2,3.8-4.2,4.3-6.9.5-2.7-.8-5.8-1.9-8.2-1.4-3.1-3-7.4-6.1-9.1-2.8-1.6-6.5-.7-9,1.3-4.3,3.5-6.4,9-6.3,14.5,0,1.5.2,3.1.6,4.6.9,3.6,2.5,7,4.4,10.2,1.4,2.4,3,4.8,4.6,7,5.4,7.4,12.2,13.8,20,18.6,3.9,2.4,8.1,4.5,12.5,5.9,4.9,1.6,9.2,3.3,14.5,2.3,5.5-1.1,11-4.5,13.2-9.8.7-1.6,1-3.3.6-5-.8-3.4-5.4-5.5-8.2-7.2h0Z"/>
    </g>
  </g>
</svg>