<?xml version="1.0" encoding="UTF-8"?>
<svg id="Capa_2" data-name="Capa 2" xmlns="http://www.w3.org/2000/svg" viewBox="0 0 28.2 28.21">
  <defs>
    <style>
      .cls-1 {
        fill: #b39d46;
      }
    </style>
  </defs>
  <g id="Capa_1-2" data-name="Capa 1">
    <g id="db679dd3ef">
      <path class="cls-1" d="M8.78,17.68h-2.09c-.44-.91-.71-1.9-.79-2.95h2.32c.06,1.02.25,2.02.56,2.95ZM8.78,10.53h-2.09c-.44.91-.71,1.9-.79,2.95h2.32c.06-1.02.25-2.02.56-2.95ZM7.45,18.93c.96,1.33,2.32,2.36,3.89,2.92-.83-.8-1.53-1.8-2.06-2.92h-1.83ZM11.34,6.35c-1.57.56-2.93,1.59-3.89,2.92h1.83c.53-1.13,1.23-2.12,2.06-2.92ZM10.67,9.28h2.8v-2.98c-1.14.65-2.1,1.7-2.8,2.98ZM9.47,13.47h4.01v-2.95h-3.38c-.34.93-.56,1.93-.63,2.95ZM10.1,17.68h3.38v-2.95h-4.01c.06,1.03.29,2.03.63,2.95ZM13.47,21.92v-2.98h-2.8c.7,1.28,1.67,2.33,2.8,2.98ZM14.73,18.93v2.98c1.13-.65,2.1-1.7,2.8-2.98h-2.8ZM14.73,6.29v2.98h2.8c-.7-1.28-1.67-2.33-2.8-2.98ZM18.73,14.73h-4v2.95h3.38c.34-.93.56-1.92.63-2.95ZM18.1,10.53h-3.38v2.95h4.01c-.07-1.03-.29-2.03-.63-2.95ZM16.86,21.85c1.58-.56,2.93-1.59,3.9-2.92h-1.83c-.53,1.13-1.23,2.12-2.06,2.92ZM20.76,9.28c-.97-1.33-2.32-2.36-3.9-2.92.83.8,1.54,1.8,2.06,2.92h1.83ZM19.42,17.68h2.09c.44-.91.71-1.9.79-2.95h-2.32c-.06,1.02-.25,2.02-.56,2.95ZM19.98,13.47h2.32c-.08-1.05-.35-2.04-.8-2.95h-2.08c.31.94.5,1.94.56,2.95ZM28.2,14.1c0,7.79-6.31,14.1-14.1,14.1S0,21.89,0,14.1,6.31,0,14.1,0s14.1,6.31,14.1,14.1ZM23.58,14.1c0-5.23-4.26-9.48-9.48-9.48S4.62,8.88,4.62,14.1s4.26,9.48,9.48,9.48,9.48-4.25,9.48-9.48Z"/>
    </g>
  </g>
</svg>