<?xml version="1.0" encoding="UTF-8"?>
<svg id="Capa_2" xmlns="http://www.w3.org/2000/svg" version="1.1" viewBox="0 0 183.9 183.8">
  <!-- Generator: Adobe Illustrator 29.7.1, SVG Export Plug-In . SVG Version: 2.1.1 Build 8)  -->
  <defs>
    <style>
      .st0 {
        fill: #fff;
      }
    </style>
  </defs>
  <g id="_íconos">
    <g>
      <path class="st0" d="M183.5,83.9c-2.3-26.9-14.7-47.2-30.5-61C137.2,9,113.6-2.1,83.5.3c-13.9,1.1-25.5,5.3-35.7,10.8-10.5,5.7-18.4,12.4-25.3,20.5C8.9,47.4-2.3,69.2.4,100.7c2.3,26.7,14.5,46.2,30.9,60.6,15.3,13.5,40.2,24.7,69.1,22.1,27-2.5,46.2-14.6,60.6-30.9,14.2-16.1,25-39.1,22.5-68.7h0ZM143.9,93.1c0,27,0,45.3-21.4,51-7.3,2-19.4,1.5-30,1.5s-28.9.7-37.9-4.1c-15.1-8.1-14.6-27.4-14.6-51.4s-.5-23.7,3.4-32.2c4.1-8.9,12.9-15,29.3-15.8,17-.8,44-2.9,56.2,3.4,4.9,2.5,9.3,7.8,11.2,11.6,4.4,8.7,3.8,25.2,3.8,36h0Z"/>
      <path class="st0" d="M130.8,59.3c-5.2-7.9-16.3-8.3-29.6-8.3s-18.3-.1-27.8.4c-18.1,1-22.6,7.7-23.6,24.4-.9,14.8-1.8,41.8,2.6,50.2,5.8,11,22.4,10.1,38.6,10.1s24.7,1.4,33-2.6c12.4-6,10.5-23.3,10.5-41.6s.6-26-3.8-32.6h0ZM96.2,120.1c-16.2,2.1-33.8-9.8-30.8-31.1,1.7-12.2,11.7-21,24.8-21.8,15.6-.9,28.4,10.4,28.5,26.2,0,13.7-9.9,25-22.5,26.6ZM122.5,71.7c-8,3.2-13.5-9.4-4.5-11.6,7.8-1.9,10.7,9.2,4.5,11.6Z"/>
      <path class="st0" d="M91,76.6c-9,.6-14.9,5.9-16.1,13.5-3.4,21.3,23.8,27,32.2,12.4,7.8-13.4-4.2-26.6-16.1-25.9Z"/>
    </g>
  </g>
</svg>