<?xml version="1.0" encoding="UTF-8"?>
<svg id="Capa_2" data-name="Capa 2" xmlns="http://www.w3.org/2000/svg" viewBox="0 0 146.82 147.18">
  <defs>
    <style>
      .cls-1 {
        fill-rule: evenodd;
      }

      .cls-1, .cls-2 {
        fill: #b39d46;
      }
    </style>
  </defs>
  <g id="_íconos" data-name="íconos">
    <g>
      <path class="cls-2" d="M0,147.18l10.55-39.37c-5.97-10.78-9.12-22.86-9.12-35.12C1.43,32.61,34.04,0,74.12,0s72.69,32.61,72.69,72.69-32.61,72.69-72.69,72.69c-12.03,0-23.92-3.04-34.55-8.81L0,147.18ZM41.54,121.82l2.49,1.49c9.15,5.45,19.56,8.33,30.09,8.33,32.5,0,58.95-26.44,58.95-58.95S106.63,13.74,74.12,13.74,15.17,40.18,15.17,72.69c0,10.73,2.98,21.3,8.62,30.56l1.53,2.51-5.89,21.98,22.1-5.92Z"/>
      <path class="cls-1" d="M101.16,82.8c-2.99-1.79-6.89-3.79-10.41-2.35-2.7,1.11-4.43,5.34-6.18,7.5-.9,1.11-1.97,1.28-3.35.73-10.15-4.04-17.93-10.82-23.53-20.16-.95-1.45-.78-2.59.36-3.94,1.69-1.99,3.82-4.25,4.28-6.94.46-2.68-.8-5.82-1.91-8.21-1.42-3.06-3-7.41-6.06-9.14-2.81-1.59-6.52-.7-9.02,1.34-4.33,3.52-6.41,9.04-6.35,14.51.02,1.55.21,3.11.57,4.61.87,3.61,2.54,6.98,4.42,10.18,1.42,2.42,2.95,4.76,4.61,7.01,5.43,7.38,12.18,13.78,20.01,18.57,3.91,2.39,8.12,4.49,12.48,5.93,4.89,1.62,9.24,3.3,14.52,2.29,5.53-1.05,10.97-4.47,13.17-9.8.65-1.58.97-3.33.61-5-.75-3.44-5.41-5.49-8.2-7.16Z"/>
    </g>
  </g>
</svg>