<?xml version="1.0" encoding="UTF-8"?>
<svg id="Capa_2" data-name="Capa 2" xmlns="http://www.w3.org/2000/svg" viewBox="0 0 143.18 113.12">
  <defs>
    <style>
      .cls-1 {
        fill: #b39d46;
      }
    </style>
  </defs>
  <g id="_íconos" data-name="íconos">
    <path class="cls-1" d="M121.46,0H21.71C9.74,0,0,9.74,0,21.71v69.68c0,11.98,9.74,21.73,21.71,21.73h99.75c11.98,0,21.72-9.74,21.72-21.73V21.71c0-11.97-9.74-21.71-21.72-21.71ZM12.62,21.71c0-.32.02-.64.05-.95l40.36,45.8c4.71,5.33,11.47,8.38,18.56,8.38s13.85-3.05,18.56-8.38l40.36-45.8c.03.32.05.63.05.95v69.68c0,5.02-4.08,9.1-9.1,9.1H21.71c-5.02,0-9.1-4.09-9.1-9.1V21.71ZM80.69,58.21c-2.3,2.62-5.62,4.11-9.1,4.11s-6.79-1.49-9.1-4.11L22.32,12.61h98.55l-40.18,45.6Z"/>
  </g>
</svg>