<?xml version="1.0" encoding="UTF-8"?>
<svg id="Capa_2" data-name="Capa 2" xmlns="http://www.w3.org/2000/svg" xmlns:xlink="http://www.w3.org/1999/xlink" viewBox="0 0 76.96 88.9">
  <defs>
    <style>
      .cls-1 {
        fill: none;
      }

      .cls-2 {
        fill: #3a3a3a;
      }

      .cls-3 {
        clip-path: url(#clippath);
      }
    </style>
    <clipPath id="clippath">
      <rect class="cls-1" width="76.96" height="88.84"/>
    </clipPath>
  </defs>
  <g id="Capa_1-2" data-name="Capa 1">
    <g id="db679dd3ef">
      <g class="cls-3">
        <path class="cls-2" d="M10.36,76.55c-.68,0-1.35.07-2.02.2-.67.14-1.32.33-1.94.59-.63.26-1.23.58-1.79.96-.57.38-1.09.81-1.57,1.29s-.91,1.01-1.29,1.57c-.38.57-.7,1.16-.96,1.79-.26.63-.45,1.28-.59,1.94C.07,85.56,0,86.23,0,86.91v1.99h65.8v-1.99c0-.68-.07-1.35-.2-2.02-.14-.67-.33-1.31-.59-1.94-.26-.63-.58-1.22-.96-1.79-.38-.57-.81-1.09-1.29-1.57s-1.01-.91-1.57-1.29c-.56-.38-1.16-.7-1.79-.96-.63-.26-1.28-.46-1.94-.59-.67-.14-1.34-.2-2.02-.2h-.96l-.47-1.85c1.63-.32,3.22-.78,4.77-1.39s3.03-1.34,4.44-2.2,2.74-1.84,3.99-2.94,2.38-2.3,3.41-3.6c1.03-1.3,1.94-2.68,2.73-4.14.79-1.46,1.44-2.98,1.96-4.56.52-1.58.9-3.19,1.13-4.83.23-1.65.32-3.3.27-4.95s-.26-3.3-.6-4.92c-.34-1.63-.83-3.2-1.46-4.74-.63-1.54-1.38-3.01-2.27-4.41-.88-1.41-1.89-2.72-3-3.95-1.12-1.23-2.33-2.35-3.65-3.36-1.31-1.01-2.71-1.9-4.18-2.67-1.47-.77-3-1.4-4.58-1.89-1.58-.5-3.2-.85-4.84-1.06-.42-.06-2.12-.08-8.27-.15l-2.7-.03c-.66-1.1-1.51-2.03-2.56-2.79-1.04-.75-2.19-1.27-3.44-1.54V5.05h-3.19V.07h-11.02v4.97h-3.2l-.03,35.04h3.2v4.97h11.03v-4.97h3.19v-7.3c.15-.03.3-.06.44-.1,2.13-.57,3.83-1.74,5.11-3.53l3.57.09c2.48.06,6.24.14,6.96.21.96.24,1.91.57,2.82.96.91.4,1.79.87,2.63,1.42.84.54,1.63,1.15,2.36,1.82.73.67,1.41,1.4,2.03,2.19.62.79,1.17,1.61,1.65,2.49s.88,1.79,1.21,2.73c.33.94.58,1.91.75,2.89.17.98.26,1.97.27,2.97,0,1-.07,1.99-.22,2.97-.16.99-.4,1.95-.71,2.9-.32.95-.71,1.86-1.18,2.74-.47.88-1,1.72-1.61,2.51-.6.8-1.27,1.53-1.99,2.22-.73.68-1.51,1.3-2.34,1.86-.83.55-1.7,1.04-2.6,1.45-.91.41-1.85.75-2.81,1.01l-1.08-4.39c-.17-.67-.44-1.29-.81-1.86-.38-.57-.83-1.07-1.38-1.5-.54-.42-1.14-.74-1.79-.97s-1.32-.33-2.01-.33h-1.43c-.6,0-1.18.08-1.76.26s-1.11.42-1.61.74c-.5.33-.94.72-1.33,1.17-.39.46-.7.96-.94,1.51h-19.34c-.56,0-1.13.05-1.68.17-.55.11-1.09.27-1.61.49-.52.21-1.02.48-1.49.79-.47.32-.9.67-1.3,1.07s-.76.83-1.07,1.3-.58.96-.8,1.48c-.21.52-.38,1.06-.49,1.61s-.17,1.11-.17,1.68v2.23h27.39v6.55l-26.41-.02ZM24.92,4.04h3.07v.99h-3.07v-.99ZM61.51,84.92H4.29c.21-.64.51-1.23.91-1.78s.87-1.02,1.41-1.41c.55-.4,1.14-.7,1.78-.91.64-.21,1.29-.31,1.97-.31h45.08c.67,0,1.33.1,1.97.31s1.23.51,1.78.91c.55.4,1.02.86,1.41,1.41.4.54.7,1.14.91,1.78h0ZM24.16,26.1c.22.82.55,1.6.99,2.33.43.73.96,1.4,1.58,1.98.61.58,1.3,1.08,2.05,1.48.76.4,1.55.69,2.38.88v3.33h-9.47l.02-27.09h9.47v5.58c-.15.03-.3.05-.45.09-.59.16-1.16.38-1.71.65s-1.06.59-1.55.96c-.48.38-.93.79-1.33,1.25-.4.46-.76.96-1.06,1.49-.31.53-.56,1.08-.76,1.66-.19.58-.33,1.17-.41,1.78-.08.6-.1,1.21-.06,1.82.04.61.14,1.21.3,1.8ZM27.96,41.06h-3.08v-.99h3.08v.99ZM34.55,28.84c-.34.09-.68.15-1.04.17-.35.02-.7.01-1.05-.04-.34-.05-.69-.13-1.02-.23-.33-.11-.65-.26-.95-.43-.31-.18-.59-.38-.85-.61s-.5-.48-.71-.77c-.22-.28-.4-.57-.56-.89-.16-.32-.28-.64-.37-.98-.09-.34-.15-.68-.17-1.04-.02-.35-.01-.7.04-1.05.04-.34.13-.69.23-1.02.11-.33.26-.65.43-.96.17-.3.38-.58.61-.85.23-.27.48-.51.76-.72.28-.21.58-.4.89-.55s.64-.28.98-.37c.34-.09.68-.15,1.03-.17.35-.03.7-.01,1.05.03.35.05.69.13,1.02.24.33.11.65.26.95.43.3.18.59.38.85.61.26.23.5.48.71.77.21.28.4.57.56.89.16.32.28.64.37.98.09.34.15.68.17,1.04.02.35.01.7-.04,1.05-.04.34-.13.69-.23,1.02-.11.33-.26.65-.43.95-.18.3-.38.59-.61.85-.23.27-.48.51-.77.72-.28.21-.57.4-.89.56-.32.15-.64.28-.98.37ZM62.43,62.68c1.39-1.39,2.56-2.93,3.54-4.63.97-1.7,1.71-3.5,2.21-5.4s.74-3.82.72-5.78c-.01-1.96-.28-3.89-.81-5.77-.53-1.89-1.29-3.68-2.29-5.36-1-1.68-2.2-3.21-3.61-4.58-1.41-1.36-2.96-2.52-4.68-3.47s-3.52-1.66-5.43-2.14c-.49-.11-1.44-.16-7.74-.31l-1.99-.05c.12-.75.15-1.51.08-2.27h1.39c2.73,0,7.29.07,7.8.11,1.42.19,2.81.49,4.17.92,1.36.43,2.68.97,3.95,1.64s2.46,1.43,3.59,2.3,2.18,1.84,3.14,2.9,1.82,2.19,2.58,3.41c.76,1.21,1.41,2.48,1.94,3.8.54,1.33.95,2.69,1.24,4.09.29,1.4.46,2.81.5,4.24.04,1.43-.04,2.85-.25,4.27-.21,1.41-.54,2.8-.99,4.15-.45,1.36-1.02,2.66-1.71,3.92-.68,1.26-1.47,2.44-2.37,3.55s-1.88,2.14-2.96,3.08c-1.07.94-2.22,1.78-3.45,2.51-1.23.74-2.51,1.36-3.84,1.87-1.33.51-2.7.9-4.11,1.17l-.6-2.4c3.85-1.02,7.18-2.94,9.98-5.77ZM13.7,66.02c.17-.43.4-.82.69-1.18.29-.35.63-.66,1.01-.92.39-.26.79-.45,1.23-.58.44-.14.89-.2,1.35-.2h18.79v2.89H13.7ZM40.76,69.99v-8.31c0-.29.06-.57.17-.84.11-.27.27-.51.47-.71.21-.2.45-.36.71-.48.27-.11.55-.17.84-.17h1.43c.5,0,.95.16,1.35.47.4.31.66.71.78,1.2l3.87,15.4h-9.64v-6.56Z"/>
      </g>
      <path class="cls-2" d="M35.18,20.18c-.27-.16-.55-.28-.85-.37-.3-.09-.6-.15-.91-.16-.31-.02-.61,0-.92.04-.31.05-.6.14-.89.26s-.56.27-.81.45c-.25.18-.48.39-.68.63-.21.23-.38.48-.53.76-.15.27-.26.56-.34.86-.08.3-.13.6-.13.92-.01.31.01.61.07.92.06.3.16.59.29.88.13.28.29.54.47.79.19.24.41.46.65.66s.49.36.78.5c.28.14.57.24.87.31.3.07.61.1.92.1s.61-.04.92-.11c.3-.07.59-.17.87-.31.28-.14.54-.3.78-.5s.45-.42.64-.67c.19-.24.35-.51.47-.79.13-.28.22-.58.29-.88.06-.31.08-.61.07-.92-.01-.31-.06-.61-.14-.92-.29-1.08-.91-1.89-1.88-2.45ZM33.19,23.74s-.06,0-.08-.05,0-.07.05-.08c.03,0,.05.02.06.05.01.04,0,.07-.05.08h.02Z"/>
    </g>
  </g>
</svg>