<?xml version="1.0" encoding="UTF-8"?>
<svg id="Capa_2" data-name="Capa 2" xmlns="http://www.w3.org/2000/svg" xmlns:xlink="http://www.w3.org/1999/xlink" viewBox="0 0 93.62 93.95">
  <defs>
    <style>
      .cls-1 {
        fill: none;
      }

      .cls-2 {
        fill: #3a3a3a;
      }

      .cls-3 {
        clip-path: url(#clippath);
      }
    </style>
    <clipPath id="clippath">
      <rect class="cls-1" width="68.42" height="93.95"/>
    </clipPath>
  </defs>
  <g id="Capa_1-2" data-name="Capa 1">
    <g id="db679dd3ef">
      <g class="cls-3">
        <path class="cls-2" d="M2.13,93.74h63.84c.28,0,.55-.05.81-.16s.49-.26.69-.46c.2-.2.35-.43.46-.69.11-.26.17-.54.17-.82v-27.83c0-1.02-.08-2.03-.23-3.04-.16-1.01-.4-1.99-.72-2.96s-.71-1.91-1.18-2.81-1.01-1.77-1.62-2.59c-.6-.82-1.28-1.58-2.01-2.3s-1.52-1.36-2.35-1.95c-.84-.58-1.71-1.1-2.63-1.54-.92-.45-1.86-.82-2.84-1.11l-1.32-.4v-.28c0-.29-.06-.56-.17-.82-.1-.26-.26-.49-.46-.69-.2-.2-.43-.35-.69-.46s-.53-.16-.81-.16c-.4,0-.77.11-1.1.32-.34.21-.59.49-.78.85l-3.91-1.17c1.83-1.61,3.26-3.53,4.27-5.76,1.01-2.23,1.52-4.56,1.52-7.01.28,0,.55-.06.81-.17.26-.1.49-.26.69-.46s.35-.43.46-.69c.11-.26.17-.53.17-.81v-10.64c0-1.11-.11-2.22-.33-3.32-.22-1.09-.54-2.16-.97-3.19-.43-1.03-.95-2.01-1.57-2.94-.63-.93-1.33-1.79-2.12-2.58s-1.65-1.49-2.58-2.12c-.93-.62-1.91-1.15-2.94-1.57-1.04-.43-2.1-.75-3.19-.97-1.1-.22-2.2-.32-3.32-.32h-4.26c-1.12,0-2.22.1-3.32.32-1.09.22-2.16.54-3.19.97s-2.02.95-2.94,1.57c-.93.63-1.79,1.33-2.58,2.12-.79.79-1.5,1.65-2.12,2.58-.62.93-1.15,1.91-1.57,2.94-.43,1.04-.75,2.1-.97,3.19-.22,1.1-.33,2.21-.33,3.32v10.64c0,.28.06.55.16.81.11.26.27.49.46.69s.43.35.69.46c.26.11.54.17.82.17,0,2.44.51,4.78,1.52,7.01,1.01,2.23,2.43,4.15,4.27,5.76l-3.92,1.19c-.17-.36-.43-.65-.77-.86-.34-.21-.71-.33-1.1-.33-.28,0-.56.05-.82.16s-.49.26-.69.46c-.2.2-.35.43-.46.69-.1.26-.16.53-.16.82v.28l-1.32.4c-.98.29-1.93.66-2.84,1.11-.92.44-1.8.96-2.63,1.54-.83.59-1.62,1.23-2.35,1.95-.73.71-1.4,1.47-2.01,2.3-.6.82-1.15,1.68-1.61,2.59s-.86,1.84-1.18,2.81-.56,1.96-.71,2.96C.07,61.74,0,62.76,0,63.78v27.83c0,.28.06.56.16.82.11.26.26.49.46.69.2.2.43.35.69.46s.54.16.82.16ZM48.94,48.22v9.56c-.59.12-1.18.29-1.74.52-.57.22-1.11.49-1.63.8-.52.32-1.01.67-1.47,1.07-.46.4-.89.83-1.27,1.31-.38.47-.72.97-1.03,1.5-.3.53-.55,1.08-.75,1.66-.21.57-.36,1.16-.46,1.76s-.16,1.2-.16,1.81v12.77c0,.29.05.56.16.82s.26.49.46.69c.2.2.43.35.69.46s.53.16.82.16h4.26c.28,0,.55-.05.81-.16s.49-.26.69-.46.35-.43.46-.69c.11-.26.16-.53.16-.82s-.05-.55-.16-.81c-.1-.26-.26-.49-.46-.69s-.43-.35-.69-.46-.53-.16-.81-.16h-2.13v-10.64c0-.42.04-.83.13-1.24.08-.41.2-.81.36-1.2.16-.39.35-.76.59-1.1s.49-.67.79-.97.62-.56.97-.79.72-.43,1.1-.59c.39-.16.79-.29,1.2-.36.41-.08.82-.13,1.24-.13s.83.04,1.24.13c.41.08.81.2,1.2.36.39.16.76.35,1.1.59s.67.49.97.79.56.62.79.97.43.72.59,1.1c.16.39.28.79.36,1.2s.13.82.13,1.24v10.64h-2.13c-.28,0-.55.05-.81.16s-.49.26-.69.46-.35.43-.46.69c-.11.26-.16.53-.16.81s.05.56.16.82c.1.26.26.49.46.69s.43.35.69.46.53.16.81.16h4.26c.28,0,.56-.05.82-.16s.49-.26.69-.46c.2-.2.35-.43.46-.69.1-.26.16-.53.16-.82v-12.77c0-.61-.05-1.21-.16-1.81s-.26-1.19-.46-1.76c-.2-.57-.45-1.13-.76-1.66-.3-.53-.64-1.03-1.02-1.5-.39-.47-.81-.91-1.27-1.31-.46-.4-.95-.76-1.47-1.07-.52-.31-1.07-.58-1.63-.8-.57-.22-1.15-.4-1.74-.52v-8.26c.76.22,1.5.51,2.21.86.72.34,1.4.74,2.05,1.2.66.46,1.27.96,1.84,1.52.57.55,1.09,1.15,1.57,1.78.48.64.9,1.31,1.27,2.02.36.7.68,1.43.93,2.19.26.76.44,1.52.57,2.31.13.79.19,1.57.19,2.37v25.73h-27.66v-12.49l8.06-30.21,4.7,1.44ZM34.05,68.46l-6.04-22.66c1.94.75,3.96,1.13,6.04,1.13s4.1-.38,6.05-1.13l-6.05,22.66ZM19.15,17.13c0-.84.08-1.67.24-2.49.17-.82.41-1.62.73-2.4s.71-1.51,1.18-2.21c.47-.7,1-1.34,1.59-1.93.59-.59,1.24-1.13,1.94-1.59.7-.47,1.43-.86,2.21-1.18.77-.32,1.57-.56,2.4-.72.82-.17,1.65-.24,2.49-.24h4.26c.84,0,1.67.08,2.49.24.82.16,1.62.41,2.4.72.78.32,1.51.71,2.21,1.18.7.46,1.34.99,1.93,1.59.59.59,1.13,1.23,1.59,1.93.47.7.86,1.43,1.18,2.21.32.78.56,1.57.72,2.4.17.82.24,1.65.24,2.49v8.51c-13.98-.64-19.34-7.3-19.58-7.61-.24-.33-.56-.57-.94-.71s-.78-.18-1.18-.1c-.41.08-.76.26-1.06.54-.3.28-.5.62-.6,1.02-.21.78-.51,1.52-.91,2.22s-.87,1.35-1.43,1.93c-.56.58-1.18,1.09-1.86,1.52-.69.43-1.42.77-2.19,1.01l-.04-8.32ZM21.28,29.9v-.7c1.53-.56,2.91-1.38,4.15-2.45,1.23-1.07,2.23-2.32,3.01-3.76,2.65,2.03,5.55,3.61,8.68,4.76,3.14,1.15,6.37,1.81,9.7,1.98v.17c0,.84-.08,1.67-.24,2.49-.17.82-.41,1.62-.73,2.4-.32.77-.71,1.51-1.18,2.21-.47.69-.99,1.34-1.59,1.93s-1.24,1.12-1.94,1.59c-.7.46-1.43.86-2.21,1.18-.77.32-1.57.57-2.39.73-.82.16-1.66.24-2.49.24s-1.67-.08-2.49-.24-1.62-.41-2.4-.73c-.77-.32-1.51-.71-2.21-1.18-.69-.47-1.34-.99-1.93-1.59s-1.13-1.24-1.59-1.93c-.46-.7-.86-1.44-1.18-2.21-.32-.78-.57-1.57-.73-2.4s-.24-1.65-.24-2.49ZM17.03,72.46c.56,0,1.1.11,1.63.32.53.22.98.53,1.39.92.4.4.7.86.92,1.39.21.52.32,1.06.32,1.63s-.11,1.11-.32,1.63c-.22.52-.53.98-.92,1.38-.4.4-.86.71-1.39.92-.52.22-1.06.32-1.63.32s-1.11-.1-1.63-.32c-.52-.21-.98-.52-1.38-.92s-.71-.86-.92-1.38c-.22-.52-.32-1.06-.32-1.63s.1-1.1.32-1.63c.21-.53.52-.98.92-1.39.4-.4.86-.7,1.38-.92.52-.21,1.06-.32,1.63-.32ZM4.26,63.78c0-.8.07-1.58.2-2.37s.32-1.55.57-2.31c.26-.76.56-1.48.93-2.19.37-.71.79-1.38,1.27-2.02.48-.64,1-1.23,1.57-1.78.57-.56,1.18-1.06,1.83-1.52.66-.45,1.34-.85,2.05-1.2.72-.35,1.46-.64,2.22-.86v18.98c-.33.09-.66.19-.97.32s-.63.27-.93.43c-.3.16-.59.34-.88.54-.28.19-.54.41-.8.64s-.49.47-.72.73c-.22.26-.43.53-.63.81-.19.29-.36.58-.52.88-.16.31-.3.62-.42.94-.11.32-.21.65-.3.98-.08.33-.14.67-.18,1.01-.04.34-.06.68-.06,1.02,0,.34.03.68.07,1.03.05.34.11.67.19,1.01.08.33.19.66.31.97.13.32.27.63.43.93s.34.59.53.88c.2.28.41.55.64.8s.47.5.72.72c.26.22.53.44.81.63.29.19.58.37.88.53.3.16.61.3.93.42.32.12.65.22.98.3.33.08.67.14,1.01.18.34.04.68.06,1.02.06s.68-.02,1.02-.06.68-.1,1.01-.18c.33-.08.66-.18.98-.3.32-.13.63-.26.94-.42.3-.16.59-.33.88-.53s.55-.41.81-.63.5-.47.73-.72c.22-.26.44-.52.63-.8.2-.28.38-.57.54-.88.16-.3.3-.61.42-.93.13-.32.23-.65.31-.97.08-.33.15-.67.19-1.01.04-.34.07-.68.07-1.03s-.02-.68-.06-1.02c-.04-.34-.1-.68-.18-1.01-.08-.33-.18-.66-.3-.98-.12-.32-.26-.63-.41-.94-.16-.3-.33-.59-.53-.88-.19-.28-.4-.55-.63-.81-.22-.26-.46-.51-.71-.73-.26-.23-.52-.44-.8-.64-.28-.2-.57-.38-.87-.54s-.61-.3-.93-.43c-.32-.13-.64-.23-.97-.32v-20.3l4.7-1.44,8.07,30.21v12.49H4.26v-25.71Z"/>
      </g>
      <path class="cls-2" d="M55.63,24.56c-.19.33-.28.68-.28,1.06s.09.73.28,1.07c.3.53,7.15,11.72,18.85,11.72s18.56-11.19,18.85-11.68c.19-.33.29-.68.29-1.06s-.09-.74-.29-1.07c-.3-.53-7.15-11.72-18.85-11.72s-18.55,11.19-18.85,11.68ZM88.93,25.64c-1.88,2.54-7.09,8.52-14.45,8.52s-12.57-5.98-14.45-8.52c1.88-2.53,7.09-8.51,14.45-8.51s12.58,6,14.45,8.51Z"/>
      <path class="cls-2" d="M78.73,25.64c0,.57-.1,1.11-.32,1.63-.21.52-.52.98-.92,1.38-.4.4-.86.71-1.38.92-.52.22-1.06.33-1.63.33s-1.1-.11-1.63-.33c-.53-.21-.98-.52-1.39-.92s-.7-.86-.92-1.38c-.21-.52-.32-1.06-.32-1.63s.11-1.1.32-1.63c.22-.52.53-.98.92-1.38s.86-.71,1.39-.93c.52-.21,1.06-.32,1.63-.32s1.11.11,1.63.32c.52.22.98.53,1.38.93.4.4.71.86.92,1.38.22.52.32,1.06.32,1.63Z"/>
    </g>
  </g>
</svg>