<?xml version="1.0" encoding="UTF-8"?>
<svg id="Capa_2" data-name="Capa 2" xmlns="http://www.w3.org/2000/svg" viewBox="0 0 183.88 183.84">
  <defs>
    <style>
      .cls-1 {
        fill: #b39d46;
      }
    </style>
  </defs>
  <g id="Capa_2-2" data-name="Capa 2">
    <g id="_íconos" data-name=" íconos">
      <g>
        <path class="cls-1" d="M183.51,83.86c-2.29-26.89-14.73-47.22-30.51-61.03C137.23,9.04,113.64-2.13,83.54.35c-13.87,1.13-25.5,5.29-35.74,10.84-10.54,5.69-18.36,12.44-25.3,20.48C8.91,47.38-2.28,69.19.4,100.73c2.28,26.68,14.51,46.15,30.93,60.63,15.27,13.46,40.21,24.74,69.07,22.09,26.96-2.48,46.21-14.59,60.64-30.92,14.21-16.11,24.99-39.08,22.48-68.68h-.01ZM143.88,93.06c0,27.04-.07,45.3-21.38,51.01-7.32,1.96-19.44,1.5-30,1.5-13.66,0-28.92.66-37.88-4.12-15.12-8.09-14.63-27.42-14.63-51.38,0-13.02-.55-23.72,3.38-32.25,4.1-8.88,12.9-14.97,29.25-15.75,17.03-.81,43.96-2.88,56.25,3.38,4.85,2.46,9.33,7.82,11.24,11.63,4.39,8.69,3.76,25.24,3.76,36v-.02Z"/>
        <path class="cls-1" d="M130.76,59.31c-5.21-7.86-16.33-8.26-29.63-8.26-9.53,0-18.34-.13-27.75.38-18.1.97-22.62,7.66-23.63,24.38-.89,14.79-1.8,41.79,2.63,50.25,5.78,11.05,22.38,10.13,38.63,10.13,11.26,0,24.66,1.39,33-2.63,12.41-5.97,10.5-23.31,10.5-41.63,0-8.71.62-26.02-3.75-32.62h0ZM96.25,120.06c-16.24,2.13-33.76-9.78-30.75-31.13,1.71-12.18,11.67-20.95,24.75-21.75,15.63-.95,28.38,10.39,28.5,26.25.1,13.66-9.9,24.98-22.5,26.63ZM122.5,71.68c-8.04,3.15-13.49-9.42-4.5-11.63,7.78-1.91,10.66,9.22,4.5,11.63Z"/>
        <path class="cls-1" d="M91,76.56c-8.97.55-14.91,5.95-16.13,13.5-3.43,21.3,23.76,26.97,32.25,12.38,7.8-13.39-4.19-26.6-16.12-25.88Z"/>
      </g>
    </g>
  </g>
</svg>