<?xml version="1.0" encoding="UTF-8"?>
<svg id="Capa_2" data-name="Capa 2" xmlns="http://www.w3.org/2000/svg" xmlns:xlink="http://www.w3.org/1999/xlink" viewBox="0 0 84.05 84.05">
  <defs>
    <style>
      .cls-1 {
        fill: none;
      }

      .cls-2 {
        fill: #3a3a3a;
      }

      .cls-3 {
        clip-path: url(#clippath-1);
      }

      .cls-4 {
        clip-path: url(#clippath-3);
      }

      .cls-5 {
        clip-path: url(#clippath-4);
      }

      .cls-6 {
        clip-path: url(#clippath-2);
      }

      .cls-7 {
        clip-path: url(#clippath);
      }
    </style>
    <clipPath id="clippath">
      <rect class="cls-1" y="2.89" width="83.96" height="78.67"/>
    </clipPath>
    <clipPath id="clippath-1">
      <rect class="cls-1" y="61.56" width="22.52" height="22.41"/>
    </clipPath>
    <clipPath id="clippath-2">
      <rect class="cls-1" width="22.52" height="21.56"/>
    </clipPath>
    <clipPath id="clippath-3">
      <rect class="cls-1" x="62.52" width="21.44" height="21.56"/>
    </clipPath>
    <clipPath id="clippath-4">
      <rect class="cls-1" x="62.52" y="61.56" width="21.44" height="22.41"/>
    </clipPath>
  </defs>
  <g id="Capa_1-2" data-name="Capa 1">
    <g id="db679dd3ef">
      <g class="cls-7">
        <path class="cls-2" d="M83.96,42.58c.12-.35.12-.73,0-1.08-6.2-17.99-24.12-27.66-40.27-28.26V4.98c0-.91-.74-1.65-1.65-1.65s-1.65.74-1.65,1.65v8.27C24.09,13.85,6.29,23.63.13,41.51c-.13.36-.11.75,0,1.08,5.5,15.93,22.41,27.57,40.27,28.26v8.27c0,.91.74,1.65,1.65,1.65s1.65-.74,1.65-1.65v-8.27c17.91-.69,34.78-12.38,40.27-28.26ZM40.4,16.55v3.26c0,.91.74,1.65,1.65,1.65s1.65-.74,1.65-1.65v-3.26c14.97.61,31.18,9.51,36.96,25.49-5.24,14.35-20.52,24.84-36.96,25.51v-3.26c0-.91-.74-1.65-1.65-1.65s-1.65.74-1.65,1.65v3.26c-16.03-.65-31.63-10.85-36.97-25.51,5.77-15.94,22.02-24.88,36.97-25.49Z"/>
      </g>
      <path class="cls-2" d="M42.04,58.52c9.08,0,16.47-7.39,16.47-16.47s-7.39-16.48-16.47-16.48-16.47,7.39-16.47,16.48,7.39,16.47,16.47,16.47ZM42.04,28.86c7.27,0,13.18,5.91,13.18,13.18s-5.91,13.18-13.18,13.18-13.18-5.91-13.18-13.18,5.91-13.18,13.18-13.18Z"/>
      <path class="cls-2" d="M42.04,51.93c5.45,0,9.89-4.43,9.89-9.88s-4.43-9.89-9.89-9.89-9.89,4.43-9.89,9.89,4.44,9.88,9.89,9.88ZM42.04,35.45c3.64,0,6.59,2.96,6.59,6.59s-2.95,6.59-6.59,6.59-6.59-2.96-6.59-6.59,2.96-6.59,6.59-6.59Z"/>
      <path class="cls-2" d="M64.28,43.69h9.89c.91,0,1.65-.74,1.65-1.65,0-2.85-4.18-1.18-11.53-1.65-.91,0-1.65.74-1.65,1.65s.74,1.65,1.65,1.65Z"/>
      <path class="cls-2" d="M8.27,42.05c0,.91.74,1.65,1.65,1.65h9.89c.91,0,1.65-.74,1.65-1.65s-.73-1.65-1.65-1.65h-9.89c-.91,0-1.65.74-1.65,1.65Z"/>
      <g class="cls-3">
        <path class="cls-2" d="M19.8,80.76H3.33v-16.47c0-.91-.74-1.65-1.65-1.65s-1.65.74-1.65,1.65v18.12c0,.91.74,1.65,1.65,1.65h18.12c.91,0,1.65-.73,1.65-1.65s-.73-1.65-1.65-1.65Z"/>
      </g>
      <g class="cls-6">
        <path class="cls-2" d="M1.68,21.45c.91,0,1.65-.74,1.65-1.65V3.33h16.47c.91,0,1.65-.73,1.65-1.65S20.71.04,19.8.04H1.68C.77.04.03.77.03,1.68v18.12c0,.91.74,1.65,1.65,1.65Z"/>
      </g>
      <g class="cls-4">
        <path class="cls-2" d="M82.41.04h-18.13c-.91,0-1.65.73-1.65,1.65s.74,1.65,1.65,1.65h16.47v16.47c0,.91.74,1.65,1.65,1.65s1.65-.74,1.65-1.65V1.68c0-.91-.74-1.65-1.65-1.65Z"/>
      </g>
      <g class="cls-5">
        <path class="cls-2" d="M82.41,62.64c-.91,0-1.65.74-1.65,1.65v16.47h-16.47c-.91,0-1.65.73-1.65,1.65s.74,1.65,1.65,1.65h18.13c.91,0,1.65-.73,1.65-1.65v-18.12c0-.91-.74-1.65-1.65-1.65Z"/>
      </g>
      <path class="cls-2" d="M43.69,42.05c0,.21-.04.43-.13.63-.08.2-.2.38-.35.53-.16.16-.33.28-.54.36-.2.08-.41.13-.63.13s-.43-.04-.63-.13-.38-.2-.53-.36c-.16-.15-.28-.33-.36-.53-.08-.2-.13-.42-.13-.63s.04-.43.13-.64c.08-.2.2-.38.36-.53.15-.16.33-.28.53-.36s.41-.13.63-.13.43.04.63.13c.2.08.38.2.54.36s.27.33.35.53c.09.2.13.42.13.64Z"/>
    </g>
  </g>
</svg>