<?xml version="1.0" encoding="UTF-8"?>
<svg id="Capa_2" data-name="Capa 2" xmlns="http://www.w3.org/2000/svg" viewBox="0 0 184.64 184.54">
  <defs>
    <style>
      .cls-1 {
        fill: #3a3a3a;
        fill-rule: evenodd;
      }
    </style>
  </defs>
  <g id="_íconos" data-name="íconos">
    <path class="cls-1" d="M85.49.26c29.3-2.17,53.86,9.44,68.98,23.4,15.45,14.25,27.71,34.54,29.86,62.13,2.32,29.67-9.21,52.39-23.4,68.19-14.8,16.47-34.43,27.99-61.73,30.25-27.46,2.28-52.83-8.56-68.6-22.99C14.21,146.23,2.59,126.92.35,99.51c-2.56-31.22,9.17-52.79,23-68.59,6.82-7.78,14.99-14.85,25.42-20.57C58.58,4.96,72.17,1.24,85.49.26ZM85.89,45.85c-7.37,5.69-6.56,16.36-7.27,29.05-3.37,0-6.73,0-10.08,0,.25,5.66-.52,12.35.4,17.35,3.37,0,6.73,0,10.09,0v50.43h20.98c.26-16.67-.54-34.42.41-50.43,4.57,0,9.15,0,13.72,0,.16-6.15,1.28-11.35,1.6-17.35-5.24,0-10.48,0-15.73,0,.82-5.68-1.56-11.06,1.22-14.12,2.85-3.16,8.63-.87,14.51-1.62v-17.35c-12.52.21-23.07-1.2-29.85,4.03Z"/>
  </g>
</svg>