<?xml version="1.0" encoding="UTF-8"?>
<svg id="Capa_2" data-name="Capa 2" xmlns="http://www.w3.org/2000/svg" xmlns:xlink="http://www.w3.org/1999/xlink" viewBox="0 0 93.73 92.93">
  <defs>
    <style>
      .cls-1 {
        fill: none;
      }

      .cls-2 {
        fill: #3a3a3a;
      }

      .cls-3 {
        clip-path: url(#clippath);
      }
    </style>
    <clipPath id="clippath">
      <rect class="cls-1" y="60.93" width="93.73" height="32"/>
    </clipPath>
  </defs>
  <g id="Capa_1-2" data-name="Capa 1">
    <g id="db679dd3ef">
      <g class="cls-3">
        <path class="cls-2" d="M93.28,65.42c-.55-2.81-9.19-4.41-12.74-4.41h-19c-7.72,0-9.29,3.21-14.69,3.21s-6.96-3.21-14.69-3.21H13.17c-3.55,0-12.19,1.6-12.74,4.41-.4,1.98.18,4.22.33,4.71.57,1.88,2.71,1.01,3.88,1.52,1.18.51,1.69,2.7,1.86,9.96.17,7.26,6.42,10.13,11.32,10.13h9.63c4.39,0,7.82-1.44,10.3-3.54,5.58-4.73,5.58-14.52,5.91-16.38.33-1.85,6.08-1.85,6.42,0,.33,1.86.33,11.65,5.91,16.38,2.48,2.1,5.91,3.54,10.3,3.54h9.63c4.9,0,11.15-2.87,11.31-10.13.17-7.26.68-9.46,1.86-9.96,1.18-.51,3.32.35,3.89-1.52.14-.48.71-2.73.32-4.71ZM39.42,72.83s-.56,8.47-3.94,12.37c-.78.9-2.73,2.66-7.21,2.66h-9.96c-1.35,0-7.78-.93-7.78-7.26v-6.92c-.11-4.4.8-5.82,1.56-6.73,1.15-1.38,3.52-2.39,6.55-2.39h11.65c7.18,0,9.78,3.78,9.12,8.27ZM83.16,80.59c0,6.33-6.42,7.26-7.77,7.26h-9.96c-4.47,0-6.43-1.76-7.21-2.66-3.39-3.9-3.94-12.37-3.94-12.37-.66-4.49,1.94-8.27,9.12-8.27h11.65c3.04,0,5.41,1.01,6.56,2.38.76.91,1.68,2.34,1.56,6.73v6.92Z"/>
      </g>
      <path class="cls-2" d="M52.96,12.17c-.9,3.77-2.8,3.77-4.38,3.77-2.27,0-2.27-.26-2.27-1.96v-3.81h1.16c.96,0,1.4,0,1.4,1.69v.53h2.52v-6.97h-2.52v.53c0,1.61-.42,1.61-1.45,1.61h-1.11V2.61h2.83c1.31,0,2.03,0,2.88,2.59l.12.36h2.37l-.32-5.57h-15.91v2.48h.53c1.88,0,1.88.34,1.88,1.61v10.37c0,1.33-.06,1.61-1.88,1.61h-.53v2.48h17.04l.12-6.79h-2.38l-.09.41Z"/>
      <path class="cls-2" d="M22.02,23.23v2.24h.53c1.47,0,1.47.21,1.47,1.25v8.6c0,1.01,0,1.26-1.42,1.26h-.53v2.24h8.86v-2.24h-.81c-1.26,0-1.26-.37-1.26-1.26v-3.46h.59c.83,0,.94.15,1.03,1.44l.03.49h2.21v-6.04h-2.21l-.04.49c-.09,1.27-.29,1.27-1.01,1.27h-.61v-3.92h1.88c.99,0,1.78,0,2.35,2.15l.1.4h2.18l-.14-4.9h-13.22Z"/>
      <path class="cls-2" d="M66.29,32.39c1.24,0,2.52,0,3.76-.4,2.13-.67,3.35-2.2,3.35-4.21,0-1.04-.36-3.54-3.77-4.38-1.13-.28-3.09-.31-3.9-.31l-6.94.15v2.23h.88c1.2,0,1.2.34,1.2,1.25v8.6c0,1.01,0,1.25-1.46,1.25h-.53v2.24h8.93v-2.24h-.85c-1.23,0-1.23-.34-1.23-1.25v-2.94h.56ZM65.73,30.04v-4.57c1.57.04,2.5.37,2.5,2.39s-1.09,2.19-2.3,2.19h-.2Z"/>
      <path class="cls-2" d="M9.09,47.84h2.01l.04-.48c.16-1.86.95-1.86,1.87-1.86h.52v7.95c0,.73,0,.94-.92.94h-.83v2.04h7.68v-2.04h-.84c-.25,0-.69-.03-.81-.21-.09-.14-.09-.43-.09-.73v-7.95h.47c.92,0,1.53,0,1.92,1.92l.09.42h1.95v-4.46h-13.07v4.46Z"/>
      <path class="cls-2" d="M46.79,43.16c-4.67,0-7.18,3.46-7.18,6.71,0,4.08,2.92,6.82,7.27,6.82,4.96,0,7.22-3.48,7.22-6.73s-2.29-6.8-7.31-6.8ZM49.36,49.94c0,3.76-1.03,4.53-2.57,4.53-1.68,0-2.46-1.49-2.46-4.69,0-3.95,1.43-4.41,2.5-4.41,1.18,0,2.54.52,2.54,4.57Z"/>
      <path class="cls-2" d="M80.94,51.8l-.11.37c-.67,2.13-1.6,2.13-2.91,2.13h-1.76l6.33-9.44v-1.48h-11.15l-.24,4.24h1.96l.09-.4c.39-1.57.88-1.72,2.97-1.72h.96l-6.28,9.46v1.47h11.82l.26-4.63h-1.95Z"/>
    </g>
  </g>
</svg>