<?xml version="1.0" encoding="UTF-8"?>
<svg id="Capa_2" data-name="Capa 2" xmlns="http://www.w3.org/2000/svg" viewBox="0 0 28.2 28.2">
  <defs>
    <style>
      .cls-1 {
        fill: #b39d46;
      }
    </style>
  </defs>
  <g id="Capa_1-2" data-name="Capa 1">
    <g id="db679dd3ef">
      <path class="cls-1" d="M15.3,20.4c-1.32-.25-2.65-1.19-4.09-2.58l-1.7-1.7c-1.45-1.45-2.39-2.71-2.58-4.09-.25-1.7.63-3.02,1.64-3.96.26-.25.51-.44.82-.57.38-.13.82,0,1.13.32.57.69,1.14,1.45,1.64,2.14.19.31.25.69.19,1.01-.13.25-.26.44-.51.63-.44.31-.69.82-.69,1.39.06.51.32.94.69,1.26l1.2,1.2c.31.38.76.63,1.26.69.57.06,1.07-.25,1.45-.69.19-.19.38-.38.63-.5.38-.06.69,0,1.01.19.69.57,1.45,1.07,2.14,1.64.31.32.44.69.31,1.14-.13.31-.31.57-.57.82-1.19,1.26-2.65,1.89-3.96,1.7ZM14.1,0C6.29,0,0,6.29,0,14.1s6.29,14.1,14.1,14.1,14.1-6.3,14.1-14.1S21.91,0,14.1,0"/>
    </g>
  </g>
</svg>