<?xml version="1.0" encoding="UTF-8"?>
<svg id="Capa_2" xmlns="http://www.w3.org/2000/svg" version="1.1" viewBox="0 0 184.6 184.5">
  <!-- Generator: Adobe Illustrator 29.7.1, SVG Export Plug-In . SVG Version: 2.1.1 Build 8)  -->
  <defs>
    <style>
      .st0 {
        fill: #fff;
        fill-rule: evenodd;
      }
    </style>
  </defs>
  <g id="_íconos">
    <path class="st0" d="M85.5.3c29.3-2.2,53.9,9.4,69,23.4,15.4,14.2,27.7,34.5,29.9,62.1,2.3,29.7-9.2,52.4-23.4,68.2-14.8,16.5-34.4,28-61.7,30.2-27.5,2.3-52.8-8.6-68.6-23C14.2,146.2,2.6,126.9.3,99.5c-2.6-31.2,9.2-52.8,23-68.6,6.8-7.8,15-14.9,25.4-20.6C58.6,5,72.2,1.2,85.5.3ZM85.9,45.8c-7.4,5.7-6.6,16.4-7.3,29h-10.1c.2,5.7-.5,12.3.4,17.3h10.1v50.4h21c.3-16.7-.5-34.4.4-50.4h13.7c.2-6.2,1.3-11.3,1.6-17.3h-15.7c.8-5.7-1.6-11.1,1.2-14.1,2.8-3.2,8.6-.9,14.5-1.6v-17.3c-12.5.2-23.1-1.2-29.8,4h0Z"/>
  </g>
</svg>