<?xml version="1.0" encoding="UTF-8"?>
<svg id="Capa_2" data-name="Capa 2" xmlns="http://www.w3.org/2000/svg" viewBox="0 0 28.2 28.2">
  <defs>
    <style>
      .cls-1 {
        fill: #b39d46;
        fill-rule: evenodd;
      }
    </style>
  </defs>
  <g id="Capa_1-2" data-name="Capa 1">
    <g id="db679dd3ef">
      <path class="cls-1" d="M14.1,0c7.79,0,14.1,6.31,14.1,14.1s-6.31,14.1-14.1,14.1S0,21.89,0,14.1,6.31,0,14.1,0ZM7.24,9.3l5.43,4.39s.01.01.02.01l1.41,1.14,6.86-5.54H7.24ZM21.97,9.71l-5.4,4.35,5.44,4.39h0c.29-.29.46-.68.46-1.11v-6.47c0-.43-.18-.83-.46-1.11-.02-.02-.03-.04-.05-.05ZM21.06,18.9l-5.24-4.23-1.41,1.14c-.17.15-.42.15-.6,0l-1.42-1.15-5.24,4.23s.09,0,.14,0h13.64c.05,0,.1,0,.14,0ZM6.18,18.45l5.44-4.39-5.4-4.35-.05.05c-.28.28-.46.68-.46,1.11v6.47c0,.43.18.82.46,1.11t0,0Z"/>
    </g>
  </g>
</svg>