<?xml version="1.0" encoding="UTF-8"?>
<svg id="Capa_2" xmlns="http://www.w3.org/2000/svg" version="1.1" viewBox="0 0 1751.5 624.9">
  <!-- Generator: Adobe Illustrator 29.7.1, SVG Export Plug-In . SVG Version: 2.1.1 Build 8)  -->
  <defs>
    <style>
      .st0 {
        fill: #fff;
      }
    </style>
  </defs>
  <g id="logo">
    <g>
      <path class="st0" d="M965.3,416.6c-75.5-1.5-142.7-28-176-89.2-48.2-88.4-59.5-181.7-24.1-215.4,0,0,37-46.6,138.2-53,29.6-1.9,63.4-4.6,97.2-5.2,2.4-25,14.2-41.9,27.9-53.2-107.1,2-225.7,14.3-319.7,40.8-33.4,4.8-104.3,4.8-138.2,0C375-13.8,90.5-6.6,0,22v98.1l28.9,32.2s12.9,218.6,125.4,268.5c112.5,49.8,278.1,32.1,332.8-30.5,54.7-62.7,65.9-65.8,109.3-205.8,0,0,13.7-32.5,43.4-36.9,29.7,4.4,43.4,36.9,43.4,36.9,43.4,140,54.7,143.1,109.3,205.8,33.1,38,107.1,59.4,185.2,59.3l-12.4-32.8h0ZM490.3,327.4c-48.2,88.4-167.2,104.5-279.7,77.2-112.5-27.3-151.1-188.1-119-278.1C123.8,36.5,274.9,52.5,376.2,59s138.3,53.1,138.3,53.1c35.4,33.8,24.1,127-24.1,215.4h0Z"/>
      <g>
        <path class="st0" d="M130.5,624.9c-5.3,0-10.2-1-14.7-3-4.5-2-8.3-4.7-11.6-8.2-3.3-3.5-5.8-7.6-7.7-12.3s-2.8-9.8-2.8-15.3.9-10.5,2.8-15.2c1.8-4.7,4.4-8.9,7.7-12.4,3.2-3.5,7.1-6.3,11.6-8.3,4.5-2,9.4-3,14.7-3s10.2,1,14.7,3c4.5,2,8.3,4.8,11.6,8.3,3.2,3.5,5.8,7.6,7.7,12.4s2.8,9.8,2.8,15.2-.9,10.6-2.8,15.3-4.4,8.8-7.7,12.3c-3.3,3.5-7.1,6.2-11.6,8.2-4.5,2-9.4,3-14.7,3h0ZM130.5,619.9c4.7,0,8.9-.9,12.8-2.6,3.8-1.7,7.1-4.1,9.8-7.2,2.7-3.1,4.8-6.7,6.3-10.8,1.5-4.1,2.2-8.5,2.2-13.2s-.7-9.1-2.2-13.2-3.6-7.7-6.3-10.8c-2.7-3-6-5.4-9.8-7.2-3.9-1.8-8.1-2.7-12.8-2.7s-8.9.9-12.8,2.7c-3.8,1.8-7.1,4.2-9.8,7.2s-4.8,6.6-6.3,10.8c-1.5,4.1-2.2,8.5-2.2,13.2s.7,9,2.2,13.2c1.5,4.1,3.6,7.7,6.3,10.8s6,5.5,9.8,7.2c3.8,1.7,8.1,2.6,12.8,2.6ZM135.6,527h7.1l-10.4,15.7h-4.9l8.2-15.7h0Z"/>
        <path class="st0" d="M194.8,549.1h22.8c4.8,0,8.9.5,12.1,1.6s5.9,2.6,7.9,4.5c2,1.9,3.4,4.2,4.3,6.8s1.3,5.4,1.3,8.4-.4,5.8-1.3,8.4c-.9,2.6-2.3,4.8-4.3,6.8-2,1.9-4.6,3.4-7.9,4.5-3.3,1.1-7.3,1.6-12.1,1.6h-17.4v31.4h-5.3v-74h0ZM219.1,586.7c6.2,0,10.8-1.4,13.9-4.2,3-2.8,4.6-6.8,4.6-12.2s-1.5-9.4-4.6-12.2c-3-2.8-7.7-4.2-13.9-4.2h-19v32.6h19Z"/>
        <path class="st0" d="M290.6,553.8h-28.7v-4.8h62.8v4.8h-28.8v69.3h-5.3v-69.3h0Z"/>
        <path class="st0" d="M348.7,549.1h5.3v74h-5.3v-74h0Z"/>
        <path class="st0" d="M444.3,610.8c-.5.7-1.3,1.9-2.5,3.4-1.2,1.5-2.9,3.1-5.1,4.7-2.2,1.6-4.9,3-8,4.2-3.2,1.2-7,1.8-11.3,1.8s-10.2-1-14.6-2.9c-4.4-2-8.2-4.7-11.3-8.2-3.1-3.5-5.6-7.6-7.3-12.3-1.7-4.7-2.5-9.9-2.5-15.4s.9-10.5,2.5-15.2c1.7-4.7,4.1-8.8,7.3-12.3,3.1-3.5,6.9-6.3,11.3-8.3s9.3-3,14.6-3,8.1.6,11.3,1.8,5.9,2.6,8,4.2c2.2,1.6,3.9,3.2,5.1,4.7,1.2,1.5,2,2.7,2.5,3.4l-4,2.8c-.4-.6-1.2-1.5-2.2-2.8-1-1.3-2.4-2.6-4.2-3.9-1.8-1.3-4-2.5-6.7-3.5-2.7-1-5.9-1.5-9.7-1.5s-9,.9-12.7,2.6c-3.7,1.7-6.9,4.1-9.5,7.2s-4.6,6.6-5.9,10.7c-1.4,4.1-2,8.5-2,13.3s.7,9.2,2.1,13.3c1.4,4.1,3.4,7.7,6,10.8s5.8,5.5,9.5,7.2c3.8,1.7,8.1,2.6,12.9,2.6s6.5-.5,9.2-1.5,4.9-2.2,6.7-3.5c1.8-1.3,3.2-2.7,4.3-3.9,1.1-1.3,1.8-2.2,2.3-2.8l4,2.8h0Z"/>
        <path class="st0" d="M493.1,549.1h5.3l30.3,74h-6.1l-9.7-23.9h-34.9l-9.5,23.9h-5.8l30.3-74h0ZM511,594.2l-15.4-38.4-15.4,38.4h30.9Z"/>
        <path class="st0" d="M601.9,589.1l-25.5-40.1h6.4l21.9,34.9,21.9-34.9h6.2l-25.5,40.1v34h-5.3v-34h0Z"/>
        <path class="st0" d="M747.1,610.8c-.5.7-1.3,1.9-2.5,3.4-1.2,1.5-2.9,3.1-5.1,4.7-2.2,1.6-4.9,3-8,4.2-3.2,1.2-7,1.8-11.3,1.8s-10.2-1-14.6-2.9c-4.4-2-8.2-4.7-11.3-8.2-3.2-3.5-5.6-7.6-7.3-12.3s-2.5-9.9-2.5-15.4.8-10.5,2.5-15.2c1.7-4.7,4.1-8.8,7.3-12.3,3.1-3.5,6.9-6.3,11.3-8.3s9.3-3,14.6-3,8.1.6,11.3,1.8,5.9,2.6,8,4.2c2.2,1.6,3.9,3.2,5.1,4.7,1.2,1.5,2,2.7,2.5,3.4l-4,2.8c-.4-.6-1.2-1.5-2.2-2.8-1-1.3-2.4-2.6-4.2-3.9-1.8-1.3-4-2.5-6.7-3.5-2.7-1-5.9-1.5-9.7-1.5s-9,.9-12.7,2.6c-3.7,1.7-6.9,4.1-9.5,7.2-2.6,3-4.6,6.6-5.9,10.7-1.4,4.1-2,8.5-2,13.3s.7,9.2,2.1,13.3c1.4,4.1,3.4,7.7,6,10.8s5.8,5.5,9.5,7.2c3.8,1.7,8.1,2.6,12.9,2.6s6.5-.5,9.2-1.5c2.6-1,4.8-2.2,6.7-3.5,1.8-1.3,3.2-2.7,4.3-3.9,1.1-1.3,1.8-2.2,2.3-2.8l4,2.8h0Z"/>
        <path class="st0" d="M805.4,624.9c-5.3,0-10.2-1-14.7-3-4.5-2-8.3-4.7-11.6-8.2-3.3-3.5-5.8-7.6-7.7-12.3s-2.8-9.8-2.8-15.3.9-10.5,2.8-15.2c1.8-4.7,4.4-8.9,7.7-12.4,3.2-3.5,7.1-6.3,11.6-8.3s9.4-3,14.7-3,10.2,1,14.7,3c4.5,2,8.3,4.8,11.6,8.3,3.2,3.5,5.8,7.6,7.7,12.4s2.8,9.8,2.8,15.2-.9,10.6-2.8,15.3c-1.8,4.7-4.4,8.8-7.7,12.3-3.3,3.5-7.1,6.2-11.6,8.2s-9.4,3-14.7,3ZM805.4,619.9c4.7,0,8.9-.9,12.8-2.6,3.8-1.7,7.1-4.1,9.8-7.2s4.8-6.7,6.3-10.8c1.5-4.1,2.2-8.5,2.2-13.2s-.7-9.1-2.2-13.2-3.6-7.7-6.3-10.8c-2.7-3-6-5.4-9.8-7.2-3.8-1.8-8.1-2.7-12.8-2.7s-8.9.9-12.8,2.7c-3.8,1.8-7.1,4.2-9.8,7.2s-4.8,6.6-6.3,10.8c-1.5,4.1-2.2,8.5-2.2,13.2s.7,9,2.2,13.2c1.5,4.1,3.6,7.7,6.3,10.8s6,5.5,9.8,7.2c3.8,1.7,8.1,2.6,12.8,2.6Z"/>
        <path class="st0" d="M869.7,549.1h5.5l47.5,66v-66h5.2v74h-5.5l-47.5-65.2v65.2h-5.2v-74h0Z"/>
        <path class="st0" d="M980.8,553.8h-28.7v-4.8h62.8v4.8h-28.8v69.3h-5.3v-69.3Z"/>
        <path class="st0" d="M1049.2,549.1h5.3l30.3,74h-6.1l-9.7-23.9h-34.8l-9.6,23.9h-5.8l30.3-74h0ZM1067,594.2l-15.4-38.4-15.4,38.4h30.9Z"/>
        <path class="st0" d="M1167.7,610.8c-.4.7-1.3,1.9-2.5,3.4-1.2,1.5-2.9,3.1-5.1,4.7-2.2,1.6-4.9,3-8,4.2-3.2,1.2-7,1.8-11.3,1.8s-10.2-1-14.6-2.9c-4.4-2-8.2-4.7-11.3-8.2-3.2-3.5-5.6-7.6-7.3-12.3-1.7-4.7-2.6-9.9-2.6-15.4s.8-10.5,2.6-15.2c1.7-4.7,4.1-8.8,7.3-12.3,3.1-3.5,6.9-6.3,11.3-8.3,4.4-2,9.3-3,14.6-3s8.1.6,11.3,1.8c3.2,1.2,5.9,2.6,8,4.2,2.2,1.6,3.9,3.2,5.1,4.7,1.2,1.5,2.1,2.7,2.5,3.4l-4,2.8c-.4-.6-1.2-1.5-2.2-2.8-1-1.3-2.4-2.6-4.2-3.9-1.8-1.3-4.1-2.5-6.7-3.5-2.7-1-5.9-1.5-9.7-1.5s-9,.9-12.7,2.6c-3.7,1.7-6.9,4.1-9.5,7.2s-4.6,6.6-5.9,10.7c-1.4,4.1-2.1,8.5-2.1,13.3s.7,9.2,2.1,13.3c1.4,4.1,3.4,7.7,6,10.8s5.8,5.5,9.6,7.2c3.8,1.7,8.1,2.6,12.9,2.6s6.5-.5,9.2-1.5,4.8-2.2,6.7-3.5c1.8-1.3,3.2-2.7,4.3-3.9,1.1-1.3,1.8-2.2,2.3-2.8l4,2.8h0Z"/>
        <path class="st0" d="M1214.4,553.8h-28.7v-4.8h62.8v4.8h-28.8v69.3h-5.3v-69.3Z"/>
        <path class="st0" d="M1298.2,624.9c-5.3,0-10.2-1-14.7-3-4.5-2-8.3-4.7-11.6-8.2-3.3-3.5-5.8-7.6-7.7-12.3s-2.8-9.8-2.8-15.3.9-10.5,2.8-15.2c1.8-4.7,4.4-8.9,7.7-12.4,3.2-3.5,7.1-6.3,11.6-8.3s9.4-3,14.7-3,10.2,1,14.7,3c4.5,2,8.3,4.8,11.6,8.3,3.2,3.5,5.8,7.6,7.7,12.4s2.8,9.8,2.8,15.2-.9,10.6-2.8,15.3-4.4,8.8-7.7,12.3c-3.3,3.5-7.1,6.2-11.6,8.2s-9.4,3-14.7,3ZM1298.2,619.9c4.7,0,8.9-.9,12.8-2.6,3.8-1.7,7.1-4.1,9.8-7.2s4.8-6.7,6.3-10.8c1.5-4.1,2.2-8.5,2.2-13.2s-.7-9.1-2.2-13.2-3.6-7.7-6.3-10.8c-2.7-3-6-5.4-9.8-7.2-3.8-1.8-8.1-2.7-12.8-2.7s-8.9.9-12.8,2.7c-3.8,1.8-7.1,4.2-9.8,7.2s-4.8,6.6-6.3,10.8c-1.5,4.1-2.2,8.5-2.2,13.2s.7,9,2.2,13.2c1.5,4.1,3.6,7.7,6.3,10.8,2.7,3.1,6,5.5,9.8,7.2,3.8,1.7,8.1,2.6,12.8,2.6Z"/>
        <path class="st0" d="M1362.5,549.1h5.3v69h41.9v5h-47.3v-74h0Z"/>
        <path class="st0" d="M1460.4,624.9c-5.3,0-10.2-1-14.7-3-4.5-2-8.3-4.7-11.6-8.2-3.3-3.5-5.8-7.6-7.7-12.3s-2.8-9.8-2.8-15.3.9-10.5,2.8-15.2c1.8-4.7,4.4-8.9,7.7-12.4,3.2-3.5,7.1-6.3,11.6-8.3s9.4-3,14.7-3,10.2,1,14.7,3c4.5,2,8.3,4.8,11.6,8.3,3.2,3.5,5.8,7.6,7.7,12.4s2.8,9.8,2.8,15.2-.9,10.6-2.8,15.3-4.4,8.8-7.7,12.3c-3.3,3.5-7.1,6.2-11.6,8.2s-9.4,3-14.7,3ZM1460.4,619.9c4.7,0,8.9-.9,12.8-2.6,3.8-1.7,7.1-4.1,9.8-7.2s4.8-6.7,6.3-10.8c1.5-4.1,2.2-8.5,2.2-13.2s-.7-9.1-2.2-13.2-3.6-7.7-6.3-10.8c-2.7-3-6-5.4-9.8-7.2-3.8-1.8-8.1-2.7-12.8-2.7s-8.9.9-12.8,2.7c-3.8,1.8-7.1,4.2-9.8,7.2s-4.8,6.6-6.3,10.8c-1.5,4.1-2.2,8.5-2.2,13.2s.7,9,2.2,13.2c1.5,4.1,3.6,7.7,6.3,10.8,2.7,3.1,6,5.5,9.8,7.2,3.8,1.7,8.1,2.6,12.8,2.6Z"/>
        <path class="st0" d="M1580.4,593h-19.8v-5h25.1v27.8c-1.3,1.1-2.8,2.2-4.6,3.3-1.8,1.1-3.8,2-6.2,2.9-2.3.9-5,1.6-7.9,2.1-2.9.5-6.2.8-9.8.8-5.3,0-10.2-1-14.7-2.8-4.4-1.9-8.2-4.5-11.4-8-3.2-3.4-5.6-7.5-7.3-12.3-1.7-4.8-2.6-10-2.6-15.7s.9-10.5,2.6-15.2c1.7-4.7,4.2-8.8,7.3-12.3,3.1-3.5,6.9-6.3,11.4-8.3,4.4-2,9.3-3,14.7-3s8.1.6,11.3,1.8c3.1,1.2,5.8,2.6,7.9,4.2,2.1,1.6,3.8,3.2,5.1,4.7,1.2,1.5,2.1,2.7,2.5,3.4l-4,2.8c-.4-.6-1.2-1.5-2.2-2.8-1-1.3-2.5-2.6-4.3-3.9-1.8-1.3-4-2.5-6.6-3.5s-5.6-1.5-9.1-1.5-9.1.9-12.9,2.6c-3.8,1.7-7,4.1-9.7,7.2s-4.7,6.6-6.1,10.7c-1.4,4.1-2.1,8.5-2.1,13.3s.7,9.2,2.1,13.3,3.4,7.7,6,10.8c2.6,3.1,5.8,5.5,9.5,7.2,3.7,1.7,7.9,2.6,12.6,2.6s10.4-.6,14-1.9c3.7-1.3,6.7-2.7,9-4.4v-20.5h0Z"/>
        <path class="st0" d="M1623.6,527h7.1l-10.4,15.7h-4.9l8.2-15.7h0ZM1616,549.1h5.3v74h-5.3v-74h0Z"/>
        <path class="st0" d="M1675.1,549.1h5.3l30.3,74h-6.1l-9.7-23.9h-34.8l-9.6,23.9h-5.8l30.3-74h0ZM1693,594.2l-15.4-38.4-15.4,38.4h30.9Z"/>
      </g>
      <path class="st0" d="M1201.8,26.2l-17.8,37.8c-27.7-16.7-55.3-23.7-74.6-23.7s-41.5,9.5-41.5,26.6c0,55.7,137.5,25.8,137.2,117.5,0,45.5-40,73.5-96.1,73.5s-77.9-16.4-104-40.4l18.6-37.1c26.2,24,58.9,37.1,86.2,37.1s47.7-11.3,47.7-30.9c0-56.8-137.5-25.1-137.5-115.7S1057.3,0,1112.6,0s65.5,10.6,89.1,26.2h0Z"/>
      <path class="st0" d="M1002.5,444.6l-101.5-254.7h46.2l78.6,207,79.3-207h44.8l-103,254.7h-44.4Z"/>
      <g>
        <path class="st0" d="M1120.9,455.9v-142.5h32.2v142.5h-32.2Z"/>
        <path class="st0" d="M1283.5,327.5l-12.4,26.7c-15.1-9-33-14.7-44.4-14.7s-18.1,3.9-18.1,11.6c0,26.2,75.9,11.6,75.7,62.9,0,27.9-24.2,42.9-55.8,42.9s-46.8-9-62.9-22.6l12.8-26.2c14.7,13,35.4,21.4,50.5,21.4s21.2-4.9,21.2-13.6c0-26.9-75.9-11.2-75.9-61.7s22.2-42.1,55.2-42.1,39.9,6.1,54.1,15.5h0Z"/>
        <path class="st0" d="M1425.5,396.3c0,37.6-24.6,61-63.9,61s-64.7-23.4-64.7-61v-82.8h32.2v82.8c0,20.5,13.4,33,32.6,33s31.8-12.4,31.8-33v-82.8h32.2v82.8h0Z"/>
        <path class="st0" d="M1470.9,428.2l-11.2,27.7h-33.2l61.9-142.5h33.2l60.8,142.5h-34.4l-11.2-27.7h-66ZM1504.1,347l-22.6,55.4h45l-22.4-55.4h0Z"/>
        <path class="st0" d="M1683.1,427.8v28.1h-93.2v-142.5h32.2v114.4h61.1Z"/>
      </g>
      <g>
        <path class="st0" d="M1244.8,212.1l-11.2,27.7h-33.2l61.9-142.5h33.2l60.8,142.5h-34.4l-11.2-27.7h-66ZM1278,130.9l-22.6,55.4h45l-22.4-55.4h0Z"/>
        <path class="st0" d="M1457,211.7v28.1h-93.2V97.3h32.2v114.4h61.1Z"/>
        <path class="st0" d="M1594.8,180.1c0,37.6-24.6,61.1-63.9,61.1s-64.7-23.4-64.7-61.1v-82.8h32.2v82.8c0,20.6,13.4,33,32.6,33s31.8-12.4,31.8-33v-82.8h32.2v82.8h0Z"/>
        <path class="st0" d="M1676.6,97.3c44.2,0,74.9,29.1,74.9,71.2s-31.1,71.2-76.1,71.2h-59.2V97.3h60.4ZM1648.3,212.7h29.1c23.8,0,41.3-17.9,41.3-44s-18.3-44.4-42.7-44.4h-27.7v88.3h0Z"/>
      </g>
    </g>
  </g>
</svg>