<?xml version="1.0" encoding="UTF-8"?>
<svg id="Capa_2" data-name="Capa 2" xmlns="http://www.w3.org/2000/svg" viewBox="0 0 1751.46 624.86">
  <defs>
    <style>
      .cls-1 {
        fill: #221616;
      }

      .cls-2 {
        fill: #1d1d1b;
      }

      .cls-3 {
        fill: #b39d46;
      }
    </style>
  </defs>
  <g id="logo">
    <g>
      <path class="cls-1" d="M965.35,416.63c-75.49-1.52-142.69-28.05-176.04-89.2-48.23-88.42-59.48-181.66-24.11-215.41,0,0,36.98-46.62,138.25-53.05,29.57-1.88,63.39-4.56,97.25-5.2,2.36-24.97,14.16-41.86,27.9-53.25-107.07,1.99-225.67,14.33-319.67,40.77-33.39,4.77-104.3,4.85-138.25,0C374.98-13.75,90.47-6.57,0,21.99v98.06l28.94,32.15s12.86,218.63,125.38,268.47c112.53,49.84,278.11,32.15,332.76-30.54,54.66-62.69,65.91-65.81,109.32-205.77,0,0,13.74-32.46,43.4-36.87,29.67,4.4,43.4,36.87,43.4,36.87,43.4,139.96,54.66,143.07,109.31,205.77,33.14,38.02,107.08,59.44,185.23,59.34l-12.41-32.84ZM490.3,327.44c-48.23,88.41-167.19,104.49-279.71,77.16-112.53-27.33-151.11-188.09-118.96-278.11C123.78,36.46,274.89,52.54,376.17,58.97c101.28,6.43,138.25,53.05,138.25,53.05,35.37,33.76,24.11,126.99-24.12,215.41Z"/>
      <g>
        <path class="cls-2" d="M130.52,624.86c-5.33,0-10.23-1-14.7-3-4.48-2-8.34-4.73-11.6-8.21-3.26-3.47-5.81-7.56-7.66-12.26-1.85-4.7-2.78-9.78-2.78-15.26s.92-10.47,2.78-15.21c1.85-4.73,4.4-8.86,7.66-12.37,3.25-3.52,7.12-6.27,11.6-8.27,4.48-2,9.38-3,14.7-3s10.23,1,14.71,3c4.48,1.99,8.34,4.75,11.6,8.27,3.25,3.52,5.81,7.64,7.66,12.37,1.85,4.73,2.77,9.81,2.77,15.21s-.92,10.56-2.77,15.26c-1.85,4.7-4.4,8.79-7.66,12.26-3.26,3.48-7.12,6.21-11.6,8.21-4.48,2-9.38,3-14.71,3ZM130.52,619.87c4.66,0,8.92-.87,12.77-2.61,3.84-1.73,7.12-4.14,9.82-7.21,2.7-3.07,4.79-6.66,6.27-10.77,1.48-4.11,2.22-8.49,2.22-13.15s-.74-9.07-2.22-13.21c-1.48-4.14-3.57-7.73-6.27-10.77-2.7-3.03-5.98-5.44-9.82-7.21-3.85-1.78-8.1-2.67-12.77-2.67s-8.91.89-12.76,2.67c-3.85,1.78-7.12,4.18-9.82,7.21-2.7,3.03-4.79,6.62-6.27,10.77-1.48,4.14-2.22,8.55-2.22,13.21s.74,9.04,2.22,13.15c1.48,4.11,3.57,7.7,6.27,10.77,2.7,3.07,5.97,5.48,9.82,7.21,3.85,1.74,8.1,2.61,12.76,2.61ZM135.63,526.97h7.1l-10.43,15.65h-4.88l8.21-15.65Z"/>
        <path class="cls-2" d="M194.79,549.06h22.75c4.81,0,8.86.54,12.15,1.61,3.29,1.07,5.94,2.57,7.94,4.5,2,1.92,3.44,4.18,4.33,6.77.89,2.59,1.33,5.4,1.33,8.44s-.45,5.85-1.33,8.44c-.89,2.59-2.33,4.85-4.33,6.77-2,1.93-4.65,3.42-7.94,4.49-3.29,1.08-7.34,1.61-12.15,1.61h-17.42v31.41h-5.33v-74.03ZM219.09,586.68c6.21,0,10.84-1.38,13.87-4.16,3.03-2.78,4.55-6.83,4.55-12.15s-1.52-9.38-4.55-12.16c-3.03-2.77-7.66-4.16-13.87-4.16h-18.98v32.63h18.98Z"/>
        <path class="cls-2" d="M290.57,553.82h-28.74v-4.77h62.82v4.77h-28.75v69.26h-5.33v-69.26Z"/>
        <path class="cls-2" d="M348.73,549.06h5.33v74.03h-5.33v-74.03Z"/>
        <path class="cls-2" d="M444.29,610.77c-.45.74-1.28,1.88-2.5,3.44-1.22,1.55-2.92,3.13-5.11,4.72-2.18,1.59-4.87,2.98-8.04,4.16-3.18,1.18-6.96,1.78-11.32,1.78-5.33,0-10.19-.98-14.6-2.94-4.4-1.96-8.18-4.68-11.32-8.15-3.15-3.48-5.57-7.59-7.27-12.32-1.7-4.73-2.55-9.88-2.55-15.43s.85-10.46,2.55-15.15c1.7-4.7,4.12-8.8,7.27-12.32,3.14-3.52,6.92-6.27,11.32-8.27,4.4-2,9.27-3,14.6-3,4.36,0,8.14.59,11.32,1.78,3.18,1.19,5.86,2.57,8.04,4.16,2.18,1.59,3.89,3.16,5.11,4.71,1.22,1.55,2.05,2.7,2.5,3.44l-4,2.78c-.44-.6-1.17-1.54-2.16-2.83-1-1.29-2.41-2.61-4.22-3.94-1.82-1.33-4.05-2.51-6.72-3.55-2.66-1.04-5.88-1.55-9.66-1.55-4.74,0-8.97.87-12.71,2.61-3.74,1.73-6.9,4.12-9.49,7.15-2.59,3.03-4.57,6.61-5.94,10.71-1.37,4.11-2.05,8.53-2.05,13.27s.7,9.15,2.11,13.26c1.4,4.11,3.4,7.7,5.99,10.77s5.77,5.48,9.55,7.21c3.77,1.74,8.06,2.61,12.87,2.61,3.48,0,6.53-.51,9.16-1.55,2.63-1.04,4.85-2.22,6.66-3.55,1.81-1.34,3.25-2.65,4.33-3.94,1.07-1.29,1.83-2.23,2.27-2.83l4,2.78Z"/>
        <path class="cls-2" d="M493.12,549.06h5.33l30.3,74.03h-6.1l-9.66-23.86h-34.85l-9.55,23.86h-5.77l30.3-74.03ZM510.99,594.23l-15.43-38.41-15.43,38.41h30.85Z"/>
        <path class="cls-2" d="M601.89,589.13l-25.53-40.07h6.44l21.86,34.86,21.86-34.86h6.22l-25.53,40.07v33.96h-5.33v-33.96Z"/>
        <path class="cls-2" d="M747.06,610.77c-.45.74-1.28,1.88-2.5,3.44-1.22,1.55-2.92,3.13-5.11,4.72-2.18,1.59-4.87,2.98-8.04,4.16-3.18,1.18-6.96,1.78-11.32,1.78-5.33,0-10.19-.98-14.6-2.94-4.4-1.96-8.18-4.68-11.32-8.15-3.15-3.48-5.57-7.59-7.27-12.32-1.7-4.73-2.55-9.88-2.55-15.43s.85-10.46,2.55-15.15c1.7-4.7,4.12-8.8,7.27-12.32,3.14-3.52,6.92-6.27,11.32-8.27,4.4-2,9.27-3,14.6-3,4.36,0,8.14.59,11.32,1.78,3.18,1.19,5.86,2.57,8.04,4.16,2.18,1.59,3.89,3.16,5.11,4.71,1.22,1.55,2.05,2.7,2.5,3.44l-4,2.78c-.44-.6-1.17-1.54-2.16-2.83-1-1.29-2.41-2.61-4.22-3.94-1.82-1.33-4.05-2.51-6.72-3.55-2.66-1.04-5.88-1.55-9.66-1.55-4.74,0-8.97.87-12.71,2.61-3.74,1.73-6.9,4.12-9.49,7.15-2.59,3.03-4.57,6.61-5.94,10.71-1.37,4.11-2.05,8.53-2.05,13.27s.7,9.15,2.11,13.26c1.4,4.11,3.4,7.7,5.99,10.77s5.77,5.48,9.55,7.21c3.77,1.74,8.06,2.61,12.87,2.61,3.48,0,6.53-.51,9.16-1.55,2.63-1.04,4.85-2.22,6.66-3.55,1.81-1.34,3.25-2.65,4.33-3.94,1.07-1.29,1.83-2.23,2.27-2.83l4,2.78Z"/>
        <path class="cls-2" d="M805.44,624.86c-5.33,0-10.23-1-14.7-3-4.48-2-8.34-4.73-11.6-8.21-3.26-3.47-5.81-7.56-7.66-12.26-1.85-4.7-2.78-9.78-2.78-15.26s.92-10.47,2.78-15.21c1.85-4.73,4.4-8.86,7.66-12.37,3.25-3.52,7.12-6.27,11.6-8.27,4.48-2,9.38-3,14.7-3s10.23,1,14.71,3c4.48,1.99,8.34,4.75,11.6,8.27,3.25,3.52,5.81,7.64,7.66,12.37,1.85,4.73,2.77,9.81,2.77,15.21s-.92,10.56-2.77,15.26c-1.85,4.7-4.4,8.79-7.66,12.26-3.26,3.48-7.12,6.21-11.6,8.21-4.48,2-9.38,3-14.71,3ZM805.44,619.87c4.66,0,8.92-.87,12.77-2.61,3.84-1.73,7.12-4.14,9.82-7.21,2.7-3.07,4.79-6.66,6.27-10.77,1.48-4.11,2.22-8.49,2.22-13.15s-.74-9.07-2.22-13.21c-1.48-4.14-3.57-7.73-6.27-10.77-2.7-3.03-5.98-5.44-9.82-7.21-3.85-1.78-8.1-2.67-12.77-2.67s-8.91.89-12.76,2.67c-3.85,1.78-7.12,4.18-9.82,7.21-2.7,3.03-4.79,6.62-6.27,10.77-1.48,4.14-2.22,8.55-2.22,13.21s.74,9.04,2.22,13.15c1.48,4.11,3.57,7.7,6.27,10.77,2.7,3.07,5.97,5.48,9.82,7.21,3.85,1.74,8.1,2.61,12.76,2.61Z"/>
        <path class="cls-2" d="M869.7,549.06h5.55l47.5,66.04v-66.04h5.22v74.03h-5.55l-47.5-65.16v65.16h-5.22v-74.03Z"/>
        <path class="cls-2" d="M980.8,553.82h-28.74v-4.77h62.82v4.77h-28.75v69.26h-5.33v-69.26Z"/>
        <path class="cls-2" d="M1049.17,549.06h5.33l30.3,74.03h-6.1l-9.66-23.86h-34.85l-9.55,23.86h-5.77l30.3-74.03ZM1067.04,594.23l-15.43-38.41-15.43,38.41h30.85Z"/>
        <path class="cls-2" d="M1167.71,610.77c-.45.74-1.28,1.88-2.5,3.44-1.22,1.55-2.92,3.13-5.11,4.72-2.18,1.59-4.87,2.98-8.04,4.16-3.18,1.18-6.96,1.78-11.32,1.78-5.33,0-10.19-.98-14.6-2.94-4.4-1.96-8.18-4.68-11.32-8.15-3.15-3.48-5.57-7.59-7.27-12.32-1.7-4.73-2.55-9.88-2.55-15.43s.85-10.46,2.55-15.15c1.7-4.7,4.12-8.8,7.27-12.32,3.14-3.52,6.92-6.27,11.32-8.27,4.4-2,9.27-3,14.6-3,4.36,0,8.14.59,11.32,1.78,3.18,1.19,5.86,2.57,8.04,4.16,2.18,1.59,3.89,3.16,5.11,4.71,1.22,1.55,2.05,2.7,2.5,3.44l-4,2.78c-.44-.6-1.17-1.54-2.16-2.83-1-1.29-2.41-2.61-4.22-3.94-1.82-1.33-4.05-2.51-6.72-3.55-2.66-1.04-5.88-1.55-9.66-1.55-4.74,0-8.97.87-12.71,2.61-3.74,1.73-6.9,4.12-9.49,7.15-2.59,3.03-4.57,6.61-5.94,10.71-1.37,4.11-2.05,8.53-2.05,13.27s.7,9.15,2.11,13.26c1.4,4.11,3.4,7.7,5.99,10.77,2.59,3.07,5.77,5.48,9.55,7.21,3.77,1.74,8.06,2.61,12.87,2.61,3.48,0,6.53-.51,9.16-1.55,2.63-1.04,4.85-2.22,6.66-3.55,1.81-1.34,3.25-2.65,4.33-3.94,1.07-1.29,1.83-2.23,2.27-2.83l4,2.78Z"/>
        <path class="cls-2" d="M1214.43,553.82h-28.74v-4.77h62.82v4.77h-28.75v69.26h-5.33v-69.26Z"/>
        <path class="cls-2" d="M1298.23,624.86c-5.33,0-10.23-1-14.7-3-4.48-2-8.34-4.73-11.6-8.21-3.26-3.47-5.81-7.56-7.66-12.26-1.85-4.7-2.78-9.78-2.78-15.26s.92-10.47,2.78-15.21c1.85-4.73,4.4-8.86,7.66-12.37,3.25-3.52,7.12-6.27,11.6-8.27,4.48-2,9.38-3,14.7-3s10.23,1,14.71,3c4.48,1.99,8.34,4.75,11.6,8.27,3.25,3.52,5.81,7.64,7.66,12.37,1.85,4.73,2.77,9.81,2.77,15.21s-.92,10.56-2.77,15.26c-1.85,4.7-4.4,8.79-7.66,12.26-3.26,3.48-7.12,6.21-11.6,8.21-4.48,2-9.38,3-14.71,3ZM1298.23,619.87c4.66,0,8.92-.87,12.77-2.61,3.84-1.73,7.12-4.14,9.82-7.21,2.7-3.07,4.79-6.66,6.27-10.77,1.48-4.11,2.22-8.49,2.22-13.15s-.74-9.07-2.22-13.21c-1.48-4.14-3.57-7.73-6.27-10.77-2.7-3.03-5.98-5.44-9.82-7.21-3.85-1.78-8.1-2.67-12.77-2.67s-8.91.89-12.76,2.67c-3.85,1.78-7.12,4.18-9.82,7.21-2.7,3.03-4.79,6.62-6.27,10.77-1.48,4.14-2.22,8.55-2.22,13.21s.74,9.04,2.22,13.15c1.48,4.11,3.57,7.7,6.27,10.77,2.7,3.07,5.97,5.48,9.82,7.21,3.85,1.74,8.1,2.61,12.76,2.61Z"/>
        <path class="cls-2" d="M1362.49,549.06h5.33v69.04h41.95v4.99h-47.28v-74.03Z"/>
        <path class="cls-2" d="M1460.38,624.86c-5.33,0-10.23-1-14.7-3-4.48-2-8.34-4.73-11.6-8.21-3.26-3.47-5.81-7.56-7.66-12.26-1.85-4.7-2.78-9.78-2.78-15.26s.92-10.47,2.78-15.21c1.85-4.73,4.4-8.86,7.66-12.37,3.25-3.52,7.12-6.27,11.6-8.27,4.48-2,9.38-3,14.7-3s10.23,1,14.71,3c4.48,1.99,8.34,4.75,11.6,8.27,3.25,3.52,5.81,7.64,7.66,12.37,1.85,4.73,2.77,9.81,2.77,15.21s-.92,10.56-2.77,15.26c-1.85,4.7-4.4,8.79-7.66,12.26-3.26,3.48-7.12,6.21-11.6,8.21-4.48,2-9.38,3-14.71,3ZM1460.38,619.87c4.66,0,8.92-.87,12.77-2.61,3.84-1.73,7.12-4.14,9.82-7.21,2.7-3.07,4.79-6.66,6.27-10.77,1.48-4.11,2.22-8.49,2.22-13.15s-.74-9.07-2.22-13.21c-1.48-4.14-3.57-7.73-6.27-10.77-2.7-3.03-5.98-5.44-9.82-7.21-3.85-1.78-8.1-2.67-12.77-2.67s-8.91.89-12.76,2.67c-3.85,1.78-7.12,4.18-9.82,7.21-2.7,3.03-4.79,6.62-6.27,10.77-1.48,4.14-2.22,8.55-2.22,13.21s.74,9.04,2.22,13.15c1.48,4.11,3.57,7.7,6.27,10.77,2.7,3.07,5.97,5.48,9.82,7.21,3.85,1.74,8.1,2.61,12.76,2.61Z"/>
        <path class="cls-2" d="M1580.36,593.01h-19.76v-5h25.09v27.75c-1.26,1.11-2.78,2.2-4.55,3.28-1.78,1.08-3.83,2.05-6.16,2.94-2.33.89-4.96,1.59-7.88,2.11-2.92.52-6.2.78-9.82.78-5.33,0-10.21-.95-14.65-2.83-4.44-1.88-8.23-4.55-11.37-7.99-3.15-3.44-5.59-7.55-7.33-12.32-1.74-4.78-2.61-10.01-2.61-15.7,0-5.4.87-10.46,2.61-15.15,1.74-4.7,4.18-8.8,7.33-12.32,3.14-3.52,6.94-6.27,11.37-8.27,4.44-2,9.32-3,14.65-3,4.37,0,8.12.59,11.27,1.78,3.14,1.19,5.79,2.57,7.94,4.16,2.14,1.59,3.83,3.16,5.05,4.71,1.22,1.55,2.05,2.7,2.5,3.44l-4,2.78c-.44-.6-1.18-1.54-2.22-2.83-1.04-1.29-2.46-2.61-4.27-3.94-1.82-1.33-4.02-2.51-6.61-3.55-2.59-1.04-5.62-1.55-9.1-1.55-4.81,0-9.12.87-12.93,2.61-3.81,1.73-7.03,4.12-9.66,7.15-2.63,3.03-4.65,6.61-6.05,10.71-1.41,4.11-2.11,8.53-2.11,13.27s.68,9.15,2.05,13.26c1.37,4.11,3.37,7.7,5.99,10.77,2.63,3.07,5.81,5.48,9.54,7.21,3.74,1.74,7.94,2.61,12.6,2.61,5.7,0,10.38-.63,14.04-1.88,3.66-1.26,6.67-2.73,9.04-4.44v-20.53Z"/>
        <path class="cls-2" d="M1623.64,526.97h7.1l-10.43,15.65h-4.88l8.21-15.65ZM1615.98,549.06h5.33v74.03h-5.33v-74.03Z"/>
        <path class="cls-2" d="M1675.14,549.06h5.33l30.3,74.03h-6.1l-9.66-23.86h-34.85l-9.55,23.86h-5.77l30.3-74.03ZM1693.01,594.23l-15.43-38.41-15.43,38.41h30.85Z"/>
      </g>
      <path class="cls-3" d="M1201.78,26.2l-17.83,37.84c-27.65-16.74-55.3-23.65-74.59-23.65-25.1,0-41.48,9.46-41.48,26.56,0,55.67,137.53,25.83,137.16,117.52,0,45.48-40.02,73.5-96.05,73.5-40.02,0-77.86-16.37-104.05-40.39l18.56-37.11c26.2,24.01,58.94,37.11,86.23,37.11,29.83,0,47.66-11.28,47.66-30.93,0-56.76-137.53-25.1-137.53-115.7,0-43.66,37.47-70.95,92.78-70.95,33.11,0,65.49,10.55,89.14,26.2Z"/>
      <path class="cls-3" d="M1002.54,444.63l-101.51-254.68h46.21l78.59,207.02,79.32-207.02h44.75l-102.96,254.68h-44.39Z"/>
      <g>
        <path class="cls-2" d="M1120.91,455.9v-142.46h32.15v142.46h-32.15Z"/>
        <path class="cls-2" d="M1283.5,327.49l-12.42,26.66c-15.06-8.96-32.97-14.66-44.36-14.66-10.78,0-18.11,3.87-18.11,11.6,0,26.25,75.91,11.6,75.71,62.88,0,27.88-24.22,42.94-55.76,42.94-23.4,0-46.81-8.95-62.88-22.59l12.82-26.25c14.65,13.02,35.41,21.36,50.47,21.36,13.23,0,21.16-4.88,21.16-13.63,0-26.86-75.91-11.19-75.91-61.66,0-25.85,22.18-42.13,55.15-42.13,19.94,0,39.89,6.11,54.13,15.46Z"/>
        <path class="cls-2" d="M1425.53,396.27c0,37.65-24.62,61.05-63.9,61.05s-64.72-23.41-64.72-61.05v-82.83h32.15v82.83c0,20.55,13.43,32.97,32.56,32.97s31.75-12.42,31.75-32.97v-82.83h32.15v82.83Z"/>
        <path class="cls-2" d="M1470.89,428.22l-11.19,27.67h-33.17l61.87-142.46h33.17l60.85,142.46h-34.39l-11.19-27.67h-65.94ZM1504.06,347.02l-22.59,55.35h44.97l-22.39-55.35Z"/>
        <path class="cls-2" d="M1683.12,427.82v28.08h-93.21v-142.46h32.15v114.37h61.05Z"/>
      </g>
      <g>
        <path class="cls-2" d="M1244.79,212.1l-11.19,27.67h-33.17l61.87-142.46h33.17l60.85,142.46h-34.39l-11.19-27.67h-65.94ZM1277.96,130.9l-22.59,55.35h44.97l-22.39-55.35Z"/>
        <path class="cls-2" d="M1457.02,211.69v28.08h-93.21V97.32h32.15v114.37h61.05Z"/>
        <path class="cls-2" d="M1594.78,180.15c0,37.65-24.62,61.05-63.9,61.05s-64.72-23.41-64.72-61.05v-82.83h32.15v82.83c0,20.55,13.43,32.97,32.56,32.97s31.75-12.42,31.75-32.97v-82.83h32.15v82.83Z"/>
        <path class="cls-2" d="M1676.57,97.32c44.16,0,74.89,29.1,74.89,71.23s-31.14,71.23-76.11,71.23h-59.22V97.32h60.44ZM1648.28,212.71h29.1c23.81,0,41.31-17.91,41.31-43.96s-18.32-44.37-42.73-44.37h-27.68v88.32Z"/>
      </g>
    </g>
  </g>
</svg>