<?xml version="1.0" encoding="UTF-8" standalone="no"?>
<svg
   xmlns:svg="http://www.w3.org/2000/svg"
   xmlns="http://www.w3.org/2000/svg"
   version="1.1"
   width="425.50876"
   height="264.54932"
   id="svg3270">
  <defs
     id="defs3272" />
  <g
     transform="translate(-137.24562,-400.08752)"
     id="layer1">
    <path
       d="m 522.42121,658.74484 v -64.26019 h 11.03672 v 23.76517 h 0.17616 l 11.57081,-23.76517 h 11.03673 l -11.92872,23.94413 13.44147,40.31886 H 546.5387 l -8.98989,-29.9057 h -0.17615 l -3.91473,7.12201 v 22.78369 h -11.03672 z m -21.72392,-42.81309 v -4.98289 c 0,-5.42748 -2.49424,-7.74276 -5.3408,-7.74276 -4.4488,0 -5.87489,2.31248 -5.87489,7.1192 v 32.57329 c 0,4.80672 1.42609,7.12201 5.87489,7.12201 4.00699,0 5.3408,-2.31529 5.3408,-6.49844 v -7.74276 h 11.03672 v 7.38763 c 0,9.07937 -5.3408,16.46701 -16.37752,16.46701 -11.57081,0 -16.90882,-7.38764 -16.90882,-16.46701 v -33.11017 c 0,-9.07657 5.33801,-16.46701 16.90882,-16.46701 11.03672,0 16.37752,8.01121 16.37752,17.62465 v 4.71725 h -11.03672 z m -66.75723,-5.87209 c 0,-9.07657 5.33801,-16.467 16.90881,-16.467 11.5736,0 16.91161,7.39043 16.91161,16.467 v 33.11017 c 0,9.07936 -5.33801,16.46701 -16.91161,16.46701 -11.5708,0 -16.90881,-7.38765 -16.90881,-16.46701 v -33.11017 z m 11.03673,32.84173 c 0,4.80673 1.42608,7.122 5.87488,7.122 4.4516,0 5.87768,-2.31527 5.87768,-7.122 V 610.3281 c 0,-4.80672 -1.42608,-7.11921 -5.87768,-7.11921 -4.4488,0 -5.87488,2.31249 -5.87488,7.11921 v 32.57329 z M 405.7205,604.0953 h -10.6788 v -9.61344 h 32.39713 v 9.61344 h -10.67881 v 54.64954 H 405.7233 V 604.0953 z m -25.81201,6.2328 c -0.4446,-5.51977 -3.38344,-7.11921 -5.87488,-7.11921 -3.55961,0 -5.51977,2.31249 -5.51977,6.31949 0,10.94724 22.42857,16.19856 22.42857,33.64145 0,10.59213 -7.1192,16.46701 -17.44289,16.46701 -10.2342,0 -16.10908,-8.19016 -16.55368,-17.80081 l 10.50264,-1.51276 c 0.4446,6.49565 3.02552,9.70292 6.58513,9.70292 3.82524,0 6.40616,-2.04684 6.40616,-5.87489 0,-12.72844 -22.42857,-16.11187 -22.42857,-34.53625 0,-10.2342 6.23001,-16.0196 17.08777,-16.0196 8.98988,0 14.32789,6.49844 15.30937,15.57501 l -10.49985,1.15764 z m -64.62091,48.41674 v -64.26019 h 10.23421 l 13.44148,36.75925 h 0.17617 v -36.75925 h 9.96577 v 64.26019 h -9.61345 l -14.06224,-40.1399 h -0.17617 v 40.1399 h -9.96577 z m -39.52193,0 v -64.26019 h 29.54778 v 9.61344 h -18.51385 v 16.55649 h 14.24121 v 9.61344 h -14.24121 v 18.86896 h 19.75818 v 9.61345 h -30.79211 z m -44.50761,-64.26019 h 16.37473 c 11.39185,0 17.44289,6.2328 17.44289,19.40305 v 25.45688 c 0,13.17026 -6.05104,19.40026 -17.44289,19.40026 h -16.37473 v -64.26019 z m 11.03673,55.18083 h 3.82804 c 5.87488,0 7.92172,-2.22301 7.92172,-8.98988 v -28.1245 c 0,-6.76409 -2.04684,-8.98989 -7.92172,-8.98989 h -3.82804 v 46.10427 z m -55.54434,-39.60582 c 0,-9.07657 5.338,-16.467 16.90881,-16.467 11.5736,0 16.91161,7.39043 16.91161,16.467 v 33.11017 c 0,9.07936 -5.33801,16.46701 -16.91161,16.46701 -11.57081,0 -16.90881,-7.38765 -16.90881,-16.46701 v -33.11017 z m 11.03673,32.84173 c 0,4.80673 1.42607,7.122 5.87488,7.122 4.45159,0 5.87767,-2.31527 5.87767,-7.122 V 610.3281 c 0,-4.80672 -1.42608,-7.11921 -5.87767,-7.11921 -4.44881,0 -5.87488,2.31249 -5.87488,7.11921 v 32.57329 z m -44.50761,15.84345 h -11.03393 v -64.26019 h 15.48552 c 12.37053,0 18.69281,5.25132 18.69281,18.95845 0,10.32368 -4.007,14.50685 -7.74556,16.19856 l 9.34501,29.10318 h -11.21289 l -7.83504,-26.61453 c -1.42329,0.17896 -3.73856,0.26844 -5.69592,0.26844 v 26.34609 z m 0,-35.42266 h 3.91472 c 5.96436,0 8.19016,-2.22579 8.19016,-9.87908 0,-7.65329 -2.2258,-9.87908 -8.19016,-9.87908 h -3.91472 v 19.75816 z m 114.83841,-52.54118 0,0 40.2909,-165.27964 c 3.266,-0.27403 6.54039,-0.41384 9.89026,-0.41384 50.77397,0 93.89186,32.74946 109.37459,78.28609 l -43.93159,21.43311 c 19.83367,17.4373 36.26433,38.68586 48.14272,62.56847 l -18.15873,8.86965 c -0.0447,-0.10347 -0.10346,-0.21252 -0.1482,-0.32157 -15.59738,-31.13604 -39.7708,-57.23047 -69.42203,-75.18227 l 56.78027,-27.6743 c -15.15837,-26.29017 -42.50272,-44.67538 -74.31824,-47.43247 l -35.34435,145.15236 h -23.1556 z"
       id="path31"
       style="fill:#000000" />
  </g>
</svg>
